<svg xmlns="http://www.w3.org/2000/svg" viewBox="0 0 365.08 759.72"><defs><style>.cls-1{fill:#a6a8ab;}.cls-2{fill:#808184;}.cls-3,.cls-4,.cls-5,.cls-6,.cls-7{fill:none;stroke-miterlimit:10;}.cls-3,.cls-5{stroke:#a6a8ab;}.cls-3{stroke-width:0.4px;}.cls-4{stroke:#808184;}.cls-4,.cls-5,.cls-6,.cls-7{stroke-width:0.5px;}.cls-6,.cls-7{stroke:#929497;}.cls-7{fill-rule:evenodd;}</style></defs><title>Asset 1</title><g id="Layer_2" data-name="Layer 2"><g id="Layer_1-2" data-name="Layer 1"><rect class="cls-1" x="14.59" y="48.75" width="4.17" height="537.78"/><rect class="cls-1" x="359.65" y="54.7" width="4.81" height="628.35"/><path class="cls-2" d="M75.33,647.39a1.79,1.79,0,0,0-1.75,1.94,2.13,2.13,0,0,0,2.13,2.3c.77,0,1.13-.29,1.13-.71V650H75.73c-.08,0-.11,0-.11-.13a1.22,1.22,0,0,1,0-.28h1.52c.1,0,.14,0,.14.17v1.18c0,.71-.61,1.14-1.62,1.14a2.54,2.54,0,0,1-2.59-2.69A2.22,2.22,0,0,1,75.33,647a2.06,2.06,0,0,1,1.88,1,.23.23,0,0,1,0,.11s0,.08-.08.13a.79.79,0,0,1-.33.12A1.55,1.55,0,0,0,75.33,647.39Z"/><path class="cls-2" d="M79.74,650.31,78,647.24a.58.58,0,0,1,.36-.21.13.13,0,0,1,.13.07L80,649.82A10.23,10.23,0,0,0,81.55,647h.31c.1,0,.16,0,.16.1a.32.32,0,0,1,0,.11,11.17,11.17,0,0,1-1.79,3V652h-.31c-.13,0-.17,0-.17-.13Z"/><path class="cls-2" d="M86.92,647.75l-1.43,2.56c0,.06-.08.09-.2.09H85l-1.48-2.65L83.1,652h-.32c-.13,0-.17,0-.17-.14l.51-4.66a.81.81,0,0,1,.38-.14c.08,0,.11,0,.16.11l1.56,2.77L86.82,647h.34c.13,0,.16,0,.17.14l.53,4.76h-.34c-.13,0-.18,0-.18-.14Z"/><path class="cls-2" d="M135.92,674c-.63,0-1-.29-1-1.12v-3.78h2.73c.08,0,.11,0,.11.14a1.25,1.25,0,0,1,0,.28h-2.33v1.86h1.85c.11,0,.14,0,.14.17v.25h-2v1c0,.57.18.76.53.76h1.75c.11,0,.14,0,.14.17V674Z"/><path class="cls-2" d="M140.91,669a2.55,2.55,0,1,1-2.27,2.54A2.27,2.27,0,0,1,140.91,669Zm0,4.65c.89,0,1.72-.65,1.72-2.06s-.83-2.17-1.83-2.17-1.72.65-1.72,2.06S140,673.66,141,673.66Z"/><path class="cls-2" d="M145.41,674c-.12,0-.17,0-.17-.13v-4.35h-1.46c-.08,0-.11,0-.11-.14a1.2,1.2,0,0,1,0-.28h3.45c.1,0,.14,0,.14.18v.24h-1.58V674Z"/><path class="cls-2" d="M188.41,674c-.1,0-.15,0-.15-.1a.22.22,0,0,1,0-.06l1.81-4.69a1,1,0,0,1,.41-.09.19.19,0,0,1,.22.15l1.85,4.78h-.34c-.13,0-.17,0-.2-.12l-.46-1.22h-2.35l-.5,1.34Zm2-4.45-1,2.7h2Z"/><path class="cls-2" d="M194.3,674c-.63,0-1-.29-1-1.12v-3.76a1,1,0,0,1,.33-.05c.11,0,.15,0,.15.12v3.65c0,.57.18.76.53.76h1.78c.1,0,.13,0,.13.18V674Z"/><path class="cls-2" d="M200.77,670.12s0,.08-.08.13a.79.79,0,0,1-.33.12,1.54,1.54,0,0,0-1.48-1,1.76,1.76,0,0,0-1.69,1.94,2.14,2.14,0,0,0,2.18,2.3,2.35,2.35,0,0,0,1.17-.29.43.43,0,0,1,.06.22c0,.19-.57.48-1.29.48a2.53,2.53,0,0,1-2.6-2.69A2.2,2.2,0,0,1,198.9,669a2,2,0,0,1,1.84,1A.22.22,0,0,1,200.77,670.12Z"/><path class="cls-2" d="M202,674c-.12,0-.17,0-.17-.13v-4.75a1,1,0,0,1,.33-.05c.11,0,.15,0,.15.12v2.16H205v-2.24h.31c.12,0,.17,0,.17.14V674h-.31c-.13,0-.17,0-.17-.13v-2.11h-2.68V674Z"/><path class="cls-2" d="M207.8,674c-.63,0-1-.29-1-1.12v-3.78h2.73c.08,0,.11,0,.11.14a1.26,1.26,0,0,1,0,.28h-2.33v1.86h1.85c.11,0,.14,0,.14.17v.25h-2v1c0,.57.17.76.53.76h1.75c.11,0,.14,0,.14.18V674Z"/><path class="cls-2" d="M215,669.77l-1.43,2.56c0,.06-.08.09-.2.09h-.28l-1.48-2.65-.44,4.2h-.31c-.13,0-.17,0-.17-.14l.51-4.66a.8.8,0,0,1,.38-.14c.08,0,.11,0,.16.1l1.56,2.77,1.59-2.84h.34c.13,0,.16,0,.18.14l.53,4.76h-.34c-.13,0-.17,0-.18-.14Z"/><path class="cls-2" d="M218.23,672.33l-1.74-3.08a.59.59,0,0,1,.37-.21.12.12,0,0,1,.13.07l1.51,2.72a10.22,10.22,0,0,0,1.55-2.77h.31c.1,0,.16,0,.16.1a.29.29,0,0,1,0,.1,11.14,11.14,0,0,1-1.79,3V674h-.31c-.13,0-.17,0-.17-.13Z"/><rect class="cls-1" x="227.07" y="54.75" width="4.17" height="628.48"/><rect class="cls-1" x="243.85" y="54.75" width="4.17" height="628.48"/><rect class="cls-1" x="48.07" y="51.3" width="3.58" height="631.96"/><line class="cls-3" x1="0.37" y1="683.08" x2="0.37" y2="680.91"/><line class="cls-3" x1="27.01" y1="681.03" x2="27.01" y2="679.77"/><line class="cls-3" x1="28.27" y1="679.77" x2="28.27" y2="678.51"/><line class="cls-3" x1="33.55" y1="674.67" x2="26.05" y2="674.67"/><line class="cls-3" x1="34.87" y1="673.41" x2="26.83" y2="673.41"/><line class="cls-3" x1="36.25" y1="672.15" x2="28.15" y2="672.15"/><line class="cls-3" x1="37.57" y1="670.89" x2="29.47" y2="670.89"/><line class="cls-3" x1="46.03" y1="669.69" x2="30.79" y2="669.63"/><line class="cls-3" x1="47.41" y1="668.43" x2="32.17" y2="668.37"/><line class="cls-3" x1="47.89" y1="667.17" x2="33.49" y2="667.11"/><line class="cls-3" x1="47.89" y1="665.91" x2="34.81" y2="665.85"/><line class="cls-3" x1="47.89" y1="664.59" x2="36.13" y2="664.59"/><line class="cls-3" x1="47.89" y1="663.33" x2="37.45" y2="663.27"/><line class="cls-3" x1="47.95" y1="659.55" x2="30.13" y2="659.43"/><line class="cls-3" x1="29.59" y1="678.51" x2="29.59" y2="677.19"/><line class="cls-3" x1="30.91" y1="677.25" x2="30.91" y2="675.93"/><line class="cls-3" x1="32.23" y1="675.99" x2="32.23" y2="674.67"/><line class="cls-3" x1="33.55" y1="674.67" x2="33.55" y2="673.41"/><line class="cls-3" x1="34.87" y1="673.41" x2="34.93" y2="672.15"/><line class="cls-3" x1="36.25" y1="672.15" x2="36.25" y2="670.89"/><line class="cls-3" x1="37.57" y1="670.89" x2="37.57" y2="669.63"/><line class="cls-3" x1="20.83" y1="669.57" x2="20.83" y2="668.31"/><line class="cls-3" x1="22.15" y1="668.31" x2="22.15" y2="667.05"/><line class="cls-3" x1="23.53" y1="667.05" x2="23.53" y2="665.79"/><line class="cls-3" x1="24.85" y1="665.79" x2="24.85" y2="664.53"/><line class="cls-3" x1="26.17" y1="664.53" x2="26.17" y2="663.27"/><line class="cls-3" x1="27.49" y1="663.27" x2="27.49" y2="662.01"/><path class="cls-3" d="M28.81,662v0Z"/><line class="cls-3" x1="30.13" y1="660.75" x2="30.13" y2="659.43"/><polyline class="cls-3" points="47.95 658.29 31.45 658.17 31.45 659.49"/><line class="cls-3" x1="15.79" y1="669.51" x2="15.85" y2="662.64"/><line class="cls-3" x1="47.16" y1="662.07" x2="27.49" y2="662.01"/><line class="cls-3" x1="37.91" y1="663.27" x2="26.17" y2="663.27"/><line class="cls-3" x1="36.59" y1="664.53" x2="24.85" y2="664.53"/><line class="cls-3" x1="35.21" y1="665.85" x2="23.53" y2="665.79"/><line class="cls-3" x1="33.89" y1="667.11" x2="22.15" y2="667.05"/><line class="cls-3" x1="32.57" y1="668.37" x2="20.83" y2="668.31"/><line class="cls-3" x1="31.45" y1="658.17" x2="25.87" y2="658.17"/><line class="cls-3" x1="47.59" y1="660.81" x2="28.81" y2="660.69"/><line class="cls-3" x1="47.89" y1="662.07" x2="45.97" y2="662.07"/><line class="cls-3" x1="47.89" y1="660.81" x2="47.29" y2="660.81"/><line class="cls-3" x1="46.03" y1="669.69" x2="46.09" y2="668.43"/><line class="cls-3" x1="47.41" y1="668.43" x2="47.41" y2="667.17"/><line class="cls-3" x1="25.63" y1="681.03" x2="25.63" y2="683.23"/><polyline class="cls-3" points="25.84 651.21 30.85 651.21 32.65 651.21"/><polyline class="cls-3" points="25.81 675.33 25.81 674.19 37.75 662.94 45.2 662.94 48.07 660.09"/><line class="cls-3" x1="1.81" y1="680.91" x2="1.81" y2="679.65"/><line class="cls-3" x1="3.07" y1="679.65" x2="3.07" y2="678.39"/><line class="cls-3" x1="27.01" y1="681.03" x2="0.37" y2="680.91"/><line class="cls-3" x1="25.63" y1="682.05" x2="0.37" y2="681.93"/><line class="cls-3" x1="28.27" y1="679.77" x2="1.81" y2="679.65"/><line class="cls-3" x1="29.59" y1="678.51" x2="3.07" y2="678.39"/><line class="cls-3" x1="30.91" y1="677.25" x2="4.39" y2="677.07"/><line class="cls-3" x1="32.23" y1="675.99" x2="5.71" y2="675.81"/><line class="cls-3" x1="4.39" y1="678.39" x2="4.39" y2="677.07"/><line class="cls-3" x1="5.71" y1="677.13" x2="5.71" y2="675.81"/><line class="cls-3" x1="7.03" y1="675.87" x2="7.03" y2="674.55"/><line class="cls-3" x1="8.35" y1="674.55" x2="8.35" y2="673.29"/><line class="cls-3" x1="9.67" y1="673.29" x2="9.67" y2="672.03"/><line class="cls-3" x1="10.99" y1="672.03" x2="11.05" y2="670.77"/><line class="cls-3" x1="12.37" y1="670.77" x2="12.37" y2="669.51"/><line class="cls-3" x1="11.65" y1="670.77" x2="11.67" y2="663.3"/><line class="cls-3" x1="31.25" y1="669.63" x2="12.37" y2="669.51"/><line class="cls-3" x1="29.93" y1="670.89" x2="11.05" y2="670.77"/><line class="cls-3" x1="28.61" y1="672.15" x2="9.67" y2="672.03"/><line class="cls-3" x1="26.83" y1="673.41" x2="8.35" y2="673.29"/><line class="cls-3" x1="25.63" y1="674.67" x2="7.03" y2="674.55"/><polyline class="cls-3" points="0.43 675.03 0.43 673.89 12.37 662.64 19.82 662.64 31.33 651.21"/><polyline class="cls-4" points="266.35 8.7 266.35 0.25 51.65 0.25 51.65 683.23"/><polyline class="cls-4" points="51.65 8.72 284.59 8.72 284.59 51.81"/><line class="cls-4" x1="284.58" y1="33.33" x2="51.65" y2="33.33"/><line class="cls-4" x1="364.83" y1="85.55" x2="14.5" y2="85.55"/><line class="cls-4" x1="14.47" y1="114.63" x2="364.83" y2="114.63"/><line class="cls-4" x1="14.47" y1="143.7" x2="364.83" y2="143.7"/><line class="cls-4" x1="364.83" y1="172.78" x2="14.5" y2="172.78"/><line class="cls-4" x1="14.47" y1="201.85" x2="364.83" y2="201.85"/><line class="cls-4" x1="14.47" y1="230.93" x2="364.83" y2="230.93"/><line class="cls-4" x1="364.83" y1="260.01" x2="14.5" y2="260.01"/><line class="cls-4" x1="14.47" y1="289.08" x2="364.83" y2="289.08"/><line class="cls-4" x1="14.47" y1="318.16" x2="364.83" y2="318.16"/><line class="cls-4" x1="364.83" y1="347.23" x2="14.5" y2="347.23"/><line class="cls-4" x1="14.47" y1="376.31" x2="364.83" y2="376.31"/><line class="cls-4" x1="14.47" y1="405.39" x2="364.83" y2="405.39"/><line class="cls-4" x1="364.83" y1="434.46" x2="14.5" y2="434.46"/><line class="cls-4" x1="14.47" y1="463.54" x2="364.83" y2="463.54"/><line class="cls-4" x1="14.47" y1="492.61" x2="364.83" y2="492.61"/><line class="cls-4" x1="364.83" y1="521.69" x2="14.5" y2="521.69"/><line class="cls-4" x1="14.47" y1="550.76" x2="364.83" y2="550.76"/><line class="cls-4" x1="14.47" y1="579.84" x2="364.83" y2="579.84"/><line class="cls-4" x1="14.47" y1="634.35" x2="364.83" y2="634.35"/><line class="cls-4" x1="48.07" y1="661.35" x2="364.83" y2="661.35"/><line class="cls-4" x1="243.85" y1="683.05" x2="243.85" y2="54.34"/><line class="cls-4" x1="231.49" y1="683.23" x2="231.49" y2="54.22"/><polyline class="cls-4" points="14.59 669.51 14.59 48.75 48.07 48.75 48.07 59.76 48.07 683.05"/><line class="cls-4" x1="51.65" y1="51.3" x2="48.25" y2="51.3"/><line class="cls-4" x1="18.76" y1="49.01" x2="18.76" y2="669.63"/><polyline class="cls-4" points="25.81 664.22 25.81 638.07 48.01 638.07"/><line class="cls-4" x1="31.3" y1="634.35" x2="31.3" y2="637.83"/><line class="cls-4" x1="61.03" y1="683.23" x2="61.03" y2="54.22"/><polyline class="cls-4" points="364.83 56.48 364.83 51.81 171.13 51.81 171.13 114.63"/><line class="cls-4" x1="55.9" y1="579.84" x2="55.9" y2="683.05"/><polyline class="cls-4" points="101.47 683.23 101.47 633.39 101.47 591.34 115.81 591.34 115.81 683.23"/><line class="cls-4" x1="110.23" y1="683.23" x2="110.23" y2="591.34"/><polyline class="cls-4" points="166.75 683.23 166.75 633.39 166.75 591.34 181.09 591.34 181.09 683.23"/><line class="cls-4" x1="175.51" y1="683.23" x2="175.51" y2="591.34"/><line class="cls-4" x1="272.29" y1="54.48" x2="272.29" y2="683.15"/><line class="cls-4" x1="270.07" y1="54.48" x2="270.07" y2="683.15"/><line class="cls-4" x1="248.17" y1="54.48" x2="248.17" y2="683.15"/><line class="cls-4" x1="227.05" y1="54.48" x2="227.05" y2="683.15"/><line class="cls-4" x1="274.57" y1="54.48" x2="274.57" y2="683.15"/><line class="cls-4" x1="304.31" y1="54.48" x2="304.31" y2="683.15"/><line class="cls-4" x1="302.09" y1="54.48" x2="302.09" y2="683.15"/><line class="cls-4" x1="306.59" y1="54.48" x2="306.59" y2="683.15"/><line class="cls-4" x1="336.07" y1="54.48" x2="336.07" y2="683.15"/><line class="cls-4" x1="333.85" y1="54.48" x2="333.85" y2="683.15"/><line class="cls-4" x1="338.91" y1="54.68" x2="338.91" y2="683.35"/><line class="cls-4" x1="359.65" y1="54.48" x2="359.65" y2="683.15"/><line class="cls-4" x1="55.9" y1="586.29" x2="231.24" y2="586.29"/><line class="cls-4" x1="364.83" y1="586.29" x2="243.85" y2="586.29"/><polyline class="cls-4" points="231.37 600.21 178.99 600.21 178.99 598.65 231.37 598.65"/><polyline class="cls-4" points="231.38 612.03 178.99 612.03 178.99 610.47 231.37 610.47"/><polyline class="cls-4" points="231.49 623.43 178.99 623.43 178.99 621.87 231.37 621.87"/><polyline class="cls-4" points="166.69 600.12 114.01 600.12 114.01 598.56 166.75 598.56"/><polyline class="cls-4" points="166.75 611.94 114.01 611.94 114.01 610.38 166.75 610.38"/><polyline class="cls-4" points="166.75 623.34 114.01 623.34 114.01 621.78 166.75 621.78"/><polyline class="cls-4" points="101.3 599.85 56.01 599.85 56.01 598.29 101.47 598.29"/><polyline class="cls-4" points="101.35 611.67 56.01 611.67 56.01 610.11 101.47 610.11"/><polyline class="cls-4" points="101.35 623.07 56.01 623.07 56.01 621.51 101.47 621.51"/><polyline class="cls-4" points="14.59 586.29 26.05 586.29 47.89 586.29"/><line class="cls-4" x1="25.63" y1="634.35" x2="25.63" y2="586.35"/><line class="cls-4" x1="25.99" y1="625.23" x2="47.95" y2="625.23"/><line class="cls-4" x1="104.41" y1="586.46" x2="104.41" y2="591.27"/><line class="cls-4" x1="113.71" y1="586.53" x2="113.71" y2="591.37"/><line class="cls-4" x1="170.02" y1="586.46" x2="170.02" y2="591.27"/><line class="cls-4" x1="179.32" y1="586.53" x2="179.32" y2="591.37"/><polyline class="cls-5" points="364.83 681.71 364.83 759.35 359.68 759.35 359.68 683.36"/><path class="cls-4" d="M51.65.25"/><polyline class="cls-4" points="14.47 54.48 364.83 54.48 364.83 683.23 0 683.23"/><line class="cls-6" x1="51.7" y1="555.38" x2="231.24" y2="555.38"/><line class="cls-6" x1="364.83" y1="555.38" x2="243.85" y2="555.38"/><polyline class="cls-6" points="14.59 555.38 26.05 555.38 47.89 555.38"/><line class="cls-6" x1="51.7" y1="526.28" x2="231.24" y2="526.28"/><line class="cls-6" x1="364.83" y1="526.28" x2="243.85" y2="526.28"/><polyline class="cls-6" points="14.59 526.28 26.05 526.28 47.89 526.28"/><line class="cls-6" x1="51.7" y1="497.19" x2="231.24" y2="497.19"/><line class="cls-6" x1="364.83" y1="497.19" x2="243.85" y2="497.19"/><polyline class="cls-6" points="14.59 497.19 26.05 497.19 47.89 497.19"/><line class="cls-6" x1="51.7" y1="468.1" x2="231.24" y2="468.1"/><line class="cls-6" x1="364.83" y1="468.1" x2="243.85" y2="468.1"/><polyline class="cls-6" points="14.59 468.1 26.05 468.1 47.89 468.1"/><line class="cls-6" x1="51.7" y1="439" x2="231.24" y2="439"/><line class="cls-6" x1="364.83" y1="439" x2="243.85" y2="439"/><polyline class="cls-6" points="14.59 439 26.05 439 47.89 439"/><line class="cls-6" x1="51.7" y1="409.91" x2="231.24" y2="409.91"/><line class="cls-6" x1="364.83" y1="409.91" x2="243.85" y2="409.91"/><polyline class="cls-6" points="14.59 409.91 26.05 409.91 47.89 409.91"/><line class="cls-6" x1="51.7" y1="380.81" x2="231.24" y2="380.81"/><line class="cls-6" x1="364.83" y1="380.81" x2="243.85" y2="380.81"/><polyline class="cls-6" points="14.59 380.81 26.05 380.81 47.89 380.81"/><line class="cls-6" x1="51.7" y1="351.72" x2="231.24" y2="351.72"/><line class="cls-6" x1="364.83" y1="351.72" x2="243.85" y2="351.72"/><polyline class="cls-6" points="14.59 351.72 26.05 351.72 47.89 351.72"/><line class="cls-6" x1="51.7" y1="322.63" x2="231.24" y2="322.63"/><line class="cls-6" x1="364.83" y1="322.63" x2="243.85" y2="322.63"/><polyline class="cls-6" points="14.59 322.63 26.05 322.63 47.89 322.63"/><line class="cls-6" x1="51.7" y1="293.53" x2="231.24" y2="293.53"/><line class="cls-6" x1="364.83" y1="293.53" x2="243.85" y2="293.53"/><polyline class="cls-6" points="14.59 293.53 26.05 293.53 47.89 293.53"/><line class="cls-6" x1="51.7" y1="264.44" x2="231.24" y2="264.44"/><line class="cls-6" x1="364.83" y1="264.44" x2="243.85" y2="264.44"/><polyline class="cls-6" points="14.59 264.44 26.05 264.44 47.89 264.44"/><line class="cls-6" x1="51.7" y1="235.34" x2="231.24" y2="235.34"/><line class="cls-6" x1="364.83" y1="235.34" x2="243.85" y2="235.34"/><polyline class="cls-6" points="14.59 235.34 26.05 235.34 47.89 235.34"/><line class="cls-6" x1="51.7" y1="206.25" x2="231.24" y2="206.25"/><line class="cls-6" x1="364.83" y1="206.25" x2="243.85" y2="206.25"/><polyline class="cls-6" points="14.59 206.25 26.05 206.25 47.89 206.25"/><line class="cls-6" x1="51.7" y1="177.16" x2="231.24" y2="177.16"/><line class="cls-6" x1="364.83" y1="177.16" x2="243.85" y2="177.16"/><polyline class="cls-6" points="14.59 177.16 26.05 177.16 47.89 177.16"/><line class="cls-6" x1="51.7" y1="148.06" x2="231.24" y2="148.06"/><line class="cls-6" x1="364.83" y1="148.06" x2="243.85" y2="148.06"/><polyline class="cls-6" points="14.59 148.06 26.05 148.06 47.89 148.06"/><line class="cls-6" x1="51.7" y1="118.97" x2="231.24" y2="118.97"/><line class="cls-6" x1="364.83" y1="118.97" x2="243.85" y2="118.97"/><polyline class="cls-6" points="14.59 118.97 26.05 118.97 47.89 118.97"/><line class="cls-6" x1="51.7" y1="89.87" x2="231.24" y2="89.87"/><line class="cls-6" x1="364.83" y1="89.87" x2="243.85" y2="89.87"/><polyline class="cls-6" points="14.59 89.87 26.05 89.87 47.89 89.87"/><line class="cls-6" x1="51.7" y1="59.78" x2="231.24" y2="59.78"/><line class="cls-6" x1="364.83" y1="59.78" x2="243.85" y2="59.78"/><polyline class="cls-6" points="14.59 59.78 26.05 59.78 47.89 59.78"/><line class="cls-6" x1="281.06" y1="8.72" x2="281.06" y2="51.3"/><line class="cls-6" x1="277.79" y1="8.97" x2="277.79" y2="51.55"/><line class="cls-6" x1="274.57" y1="8.97" x2="274.57" y2="51.55"/><line class="cls-6" x1="270.07" y1="8.97" x2="270.07" y2="51.55"/><line class="cls-6" x1="264.47" y1="8.97" x2="264.47" y2="51.55"/><line class="cls-6" x1="256.31" y1="8.72" x2="256.31" y2="51.3"/><line class="cls-6" x1="248.17" y1="8.97" x2="248.17" y2="51.55"/><line class="cls-6" x1="237" y1="8.97" x2="237" y2="51.55"/><line class="cls-6" x1="217.69" y1="8.97" x2="217.69" y2="51.55"/><line class="cls-6" x1="195.78" y1="8.82" x2="195.78" y2="51.62"/><line class="cls-6" x1="173.32" y1="8.82" x2="173.32" y2="51.62"/><line class="cls-6" x1="150.86" y1="8.97" x2="150.86" y2="114.15"/><line class="cls-6" x1="128.4" y1="9.04" x2="128.4" y2="114.63"/><line class="cls-6" x1="105.95" y1="9.04" x2="105.95" y2="114.63"/><line class="cls-6" x1="83.49" y1="9.04" x2="83.49" y2="114.63"/><line class="cls-6" x1="61.03" y1="9.45" x2="61.03" y2="114.63"/><line class="cls-6" x1="130.74" y1="703.06" x2="16.01" y2="703.14"/><path class="cls-6" d="M16,684.94"/><polyline class="cls-6" points="364.73 757.82 210.62 757.87 130.74 747.14 16.03 747.22"/><polyline class="cls-6" points="130.74 703.06 174.12 714.82 364.96 714.74"/><polyline class="cls-6" points="364.96 736.28 186.93 736.37 130.74 725.59 16.03 725.68"/><polyline class="cls-6" points="363.96 759.35 210.6 759.43 130.72 748.7 16.03 748.79"/><polyline class="cls-6" points="364.68 737.81 186.91 737.93 130.7 727.16 16.03 727.25"/><polyline class="cls-6" points="16.01 704.67 130.68 704.63 174.06 716.39 364.96 716.31"/><path class="cls-6" d="M365,716.31"/><path class="cls-6" d="M365,736.28"/><line class="cls-6" x1="14.59" y1="748.79" x2="14.61" y2="683.42"/><line class="cls-6" x1="18.96" y1="748.79" x2="18.98" y2="683.42"/><path class="cls-6" d="M14.61,683.42"/><path class="cls-6" d="M17.45,748.79"/><path class="cls-7" d="M14.61,692.41"/><polyline class="cls-7" points="14.59 727.25 130.44 727.16 130.74 725.59"/><polyline class="cls-7" points="14.59 727.25 14.59 725.68 130.74 725.59"/><polyline class="cls-7" points="130.44 727.16 130.74 727.16 131.02 725.68"/><polyline class="cls-7" points="130.44 727.16 130.74 725.6 131.02 725.68"/><polyline class="cls-7" points="130.74 727.16 186.64 737.85 186.93 736.37"/><polyline class="cls-7" points="130.74 727.16 131.02 725.68 186.93 736.37"/><polyline class="cls-7" points="186.64 737.85 186.93 737.93 187.23 736.37"/><polyline class="cls-7" points="186.64 737.85 186.93 736.37 187.23 736.37"/><line class="cls-6" x1="186.93" y1="737.93" x2="363.66" y2="737.81"/><polyline class="cls-7" points="186.93 737.93 187.23 736.37 364.68 736.28"/><polyline class="cls-7" points="14.59 748.79 130.44 748.7 130.74 747.13"/><polyline class="cls-7" points="14.59 748.79 14.59 747.22 130.74 747.13"/><polyline class="cls-7" points="130.44 748.7 130.74 748.7 131.02 747.18"/><polyline class="cls-7" points="130.44 748.7 130.74 747.14 131.02 747.18"/><polyline class="cls-7" points="130.74 748.7 188.83 756.5 189.14 755.02"/><polyline class="cls-7" points="130.74 748.7 131.02 747.18 189.14 755.02"/><polyline class="cls-7" points="188.83 756.5 189.34 756.59 189.62 755.06"/><polyline class="cls-7" points="188.83 756.5 189.14 755.02 189.62 755.06"/><polyline class="cls-7" points="189.34 756.59 210.34 759.39 210.62 757.87"/><polyline class="cls-7" points="189.34 756.59 189.62 755.06 210.62 757.87"/><polyline class="cls-7" points="210.34 759.39 210.62 759.43 210.91 757.87"/><polyline class="cls-7" points="210.34 759.39 210.62 757.87 210.91 757.87"/><path class="cls-7" d="M364,757.82"/><path class="cls-7" d="M210.62,759.43"/><polyline class="cls-7" points="14.59 704.67 130.44 704.63 130.74 703.06"/><polyline class="cls-7" points="14.59 704.67 14.59 703.14 130.74 703.06"/><polyline class="cls-7" points="130.44 704.63 130.74 704.63 131.02 703.14"/><polyline class="cls-7" points="130.44 704.63 130.74 703.06 131.02 703.14"/><polyline class="cls-7" points="130.74 704.63 173.83 716.31 174.12 714.82"/><polyline class="cls-7" points="130.74 704.63 131.02 703.14 174.12 714.82"/><polyline class="cls-7" points="173.83 716.31 174.06 716.39 174.36 714.82"/><polyline class="cls-7" points="173.83 716.31 174.12 714.82 174.36 714.82"/><polyline class="cls-7" points="174.06 716.39 364.66 716.31 364.68 714.74"/><polyline class="cls-7" points="174.06 716.39 174.36 714.82 364.68 714.74"/><path class="cls-5" d="M141.71,706l.52.08.55-.08a2.09,2.09,0,0,0,.5-3.84l-.5-.2-.52-.08a2.1,2.1,0,0,0-1.48,3.6l.44.31Z"/><path class="cls-5" d="M141.92,705.18l.4.06.34-.11a1.23,1.23,0,0,0,.23-2.21l-.34-.14-.41,0-.38.06-.32.19-.25.29-.18.38,0,.37.06.38.23.36.29.25Z"/><path class="cls-5" d="M159.92,710.86l.56.05.54-.08a2.1,2.1,0,0,0,.5-3.84l-.5-.2-.56-.05A2.09,2.09,0,0,0,159,710.3l.43.36Z"/><polygon class="cls-5" points="160.13 710.04 160.53 710.06 160.92 709.96 161.24 709.77 161.53 709.49 161.66 709.14 161.69 708.74 161.63 708.36 161.43 708.04 161.15 707.79 160.76 707.61 160.4 707.59 160.02 707.65 159.66 707.88 159.41 708.17 159.27 708.51 159.21 708.91 159.32 709.25 159.5 709.61 159.79 709.86 160.13 710.04"/><path class="cls-5" d="M144.82,704.67l.1-.6a2.68,2.68,0,0,0-5.06-1.31l-.21.54"/><path class="cls-5" d="M163.13,709.17l0-.61a2.66,2.66,0,0,0-5-1l-.21.58"/><line class="cls-5" x1="144.82" y1="704.67" x2="144.75" y2="705.11"/><line class="cls-5" x1="157.91" y1="708.13" x2="157.71" y2="708.59"/><line class="cls-5" x1="163.39" y1="709.58" x2="165.11" y2="710.06"/><polyline class="cls-5" points="166.37 709.33 165.89 709.5 165.54 709.89"/><line class="cls-5" x1="166.7" y1="709.06" x2="166.8" y2="708.66"/><polyline class="cls-5" points="166.74 708.33 166.5 708.04 166.47 706.2 163.72 701.71 160.28 700.51 156.74 699.41 153.22 698.43"/><polyline class="cls-5" points="145.66 699.99 143.81 699.53 141.9 699.26 139.99 699.2 138.05 699.33 137.36 700.32 136.9 700.41"/><line class="cls-5" x1="136.6" y1="700.69" x2="136.49" y2="701.12"/><line class="cls-5" x1="136.79" y1="701.58" x2="140.08" y2="702.44"/><polyline class="cls-5" points="136.94 701.65 137.03 702.6 139.65 703.31"/><polyline class="cls-5" points="137.62 702.78 137.68 703.15 137.86 703.51 138.19 703.77 138.54 703.87 140.23 704.54"/><line class="cls-5" x1="145.01" y1="705.56" x2="157.27" y2="708.8"/><line class="cls-5" x1="162.13" y1="710.07" x2="164.35" y2="710.68"/><line class="cls-5" x1="164.75" y1="710.54" x2="165.11" y2="710.06"/><polyline class="cls-5" points="143.48 705.68 144.03 705.81 144.61 705.74 158.44 709.4"/><line class="cls-5" x1="144.82" y1="704.67" x2="157.91" y2="708.13"/><line class="cls-5" x1="136.58" y1="700.85" x2="140.57" y2="701.9"/><line class="cls-5" x1="162.94" y1="707.84" x2="166.78" y2="708.82"/><line class="cls-5" x1="162.69" y1="707.35" x2="166.8" y2="708.46"/><path class="cls-5" d="M145.47,702.66l-.31-.58a3.48,3.48,0,0,0-4.15-1.36l-.62.31"/><path class="cls-5" d="M162.94,707.06l-.49-.53a3.1,3.1,0,0,0-3.36-.46l-.59.39"/><line class="cls-5" x1="137.36" y1="700.32" x2="140.1" y2="701.05"/><line class="cls-5" x1="166.5" y1="708.04" x2="163.16" y2="707.22"/><line class="cls-5" x1="145.73" y1="702.86" x2="158.73" y2="706.3"/><line class="cls-5" x1="158.16" y1="706.57" x2="145.35" y2="703.16"/><line class="cls-5" x1="145.1" y1="702.96" x2="144.94" y2="702.65"/><line class="cls-5" x1="165.6" y1="709.82" x2="163.13" y2="709.17"/><polyline class="cls-5" points="139.69 699.76 139.37 699.51 138.94 699.36 138.5 699.28 138.05 699.33"/><line class="cls-5" x1="139.69" y1="699.76" x2="139.16" y2="700.82"/><line class="cls-5" x1="139.17" y1="699.43" x2="138.49" y2="700.63"/><line class="cls-5" x1="139.35" y1="700.4" x2="140.83" y2="700.8"/><polyline class="cls-5" points="146.25 700.86 144.1 700.31 141.91 699.96 139.69 699.76"/><polyline class="cls-5" points="138.75 699.28 145.66 699.99 146.15 700.23"/><line class="cls-5" x1="146.75" y1="700.29" x2="151.99" y2="698.44"/><polyline class="cls-5" points="152.24 698.43 162.42 701.38 163.37 704.11 163.03 704.95 146.25 700.86"/><polyline class="cls-5" points="146.15 700.23 146.46 700.32 146.75 700.29"/><polyline class="cls-5" points="146.65 700.92 146.25 701.88 145.97 702.9 145.81 703.89 145.8 704.95"/><polyline class="cls-5" points="146.65 700.92 152.01 698.6 161.76 701.2 161.73 703.68 161.15 704.48 160.82 705.78"/><polyline class="cls-5" points="154.54 702.89 154.01 704.19 153.66 705.57 153.48 706.97"/><line class="cls-5" x1="154.54" y1="702.89" x2="156.1" y2="699.55"/><line class="cls-5" x1="147.57" y1="701.07" x2="153.98" y2="702.6"/><line class="cls-5" x1="154.41" y1="702.42" x2="155.77" y2="699.62"/><polyline class="cls-5" points="147.54 700.7 152.07 698.74 155.71 699.73"/><polyline class="cls-5" points="153.98 702.6 154.14 702.62 154.32 702.53 154.41 702.42"/><polyline class="cls-5" points="147.54 700.7 147.44 700.85 147.46 700.97 147.57 701.07"/><line class="cls-5" x1="156.15" y1="700.05" x2="155" y2="702.59"/><polyline class="cls-5" points="155.12 702.86 158.94 703.76 159.66 700.78 156.37 699.92"/><polyline class="cls-5" points="161.73 701.35 159.81 700.84 159.05 703.82 161.25 704.38"/><polyline class="cls-5" points="156.37 699.92 156.24 699.94 156.15 700.04"/><polyline class="cls-5" points="155 702.59 155.01 702.76 155.12 702.86"/><polyline class="cls-5" points="163.6 701.69 165.87 706.06 165.62 708.15"/><line class="cls-5" x1="145.03" y1="701.89" x2="159.87" y2="705.83"/><line class="cls-5" x1="162.45" y1="706.53" x2="165.7" y2="707.38"/><line class="cls-5" x1="165.88" y1="706.27" x2="166.47" y2="706.45"/><line class="cls-5" x1="165.78" y1="706.91" x2="166.49" y2="707.06"/><line class="cls-5" x1="165.72" y1="707.55" x2="166.5" y2="707.76"/><polygon class="cls-5" points="153.9 703.11 152.8 702.81 152.72 703.04 153.86 703.35 153.9 703.11"/><polygon class="cls-5" points="160.44 704.82 160.35 705.09 159.26 704.79 159.34 704.52 160.44 704.82"/><polyline class="cls-5" points="148.33 700.38 148.39 700.8 148.28 701.23"/><polyline class="cls-5" points="164.95 710.29 165.85 710.55 165.96 710.08 165.57 709.98"/><polyline class="cls-5" points="149.37 698.5 147.47 699.14 145.66 699.99"/><polyline class="cls-5" points="153.22 698.43 152.26 698.28 151.29 698.24 150.3 698.29 149.37 698.5"/><polyline class="cls-5" points="136.49 701.12 136.5 701.33 136.59 701.51 136.79 701.58"/><polyline class="cls-5" points="136.89 700.41 136.71 700.51 136.6 700.69"/><line class="cls-5" x1="136.76" y1="700.47" x2="141.03" y2="701.61"/><polyline class="cls-5" points="140.1 701.05 140.25 701.08 140.39 701.02"/><polyline class="cls-5" points="145.1 702.96 145.2 703.1 145.35 703.16"/><polyline class="cls-5" points="145.47 702.66 145.57 702.79 145.73 702.86"/><polyline class="cls-5" points="144.75 705.11 144.76 705.32 144.86 705.45 145.01 705.56"/><polyline class="cls-5" points="166.37 709.33 166.59 709.24 166.7 709.05"/><polyline class="cls-5" points="166.8 708.66 166.83 708.5 166.74 708.33"/><polyline class="cls-5" points="165.11 710.06 165.36 710.02 165.54 709.89"/><polyline class="cls-5" points="164.35 710.68 164.56 710.67 164.75 710.54"/><polyline class="cls-5" points="163.13 709.17 163.14 709.38 163.24 709.52 163.39 709.58"/><line class="cls-5" x1="162.94" y1="707.06" x2="163.16" y2="707.22"/><polyline class="cls-5" points="157.27 708.8 157.43 708.79 157.6 708.73 157.71 708.59"/><polyline class="cls-5" points="158.16 706.58 158.36 706.57 158.5 706.47"/><line class="cls-5" x1="166.5" y1="709.31" x2="163.08" y2="708.43"/><line class="cls-5" x1="324.84" y1="750.76" x2="324.84" y2="750.72"/><path class="cls-5" d="M322.11,747.48l-.7,0a22.79,22.79,0,0,0-9.2,2.13l-.91.43"/><line class="cls-5" x1="333.51" y1="756.4" x2="334.56" y2="756.27"/><line class="cls-5" x1="327.44" y1="756.34" x2="328.89" y2="756.32"/><line class="cls-5" x1="315.59" y1="756.28" x2="316.6" y2="756.24"/><line class="cls-5" x1="310.17" y1="756.05" x2="310.97" y2="756.07"/><polyline class="cls-5" points="323.98 750.22 324.71 750.94 324.58 751.08 324.28 751.13 324.15 751.14 323.91 750.75"/><polygon class="cls-5" points="323.75 749.84 323.97 749.96 323.99 750.49 323.84 751.07 323.66 751.07 323.57 750.99 323.75 749.84"/><polyline class="cls-5" points="310.41 754.41 310.21 755.96 310.01 756.5 309.57 756.47 309.73 756.07"/><line class="cls-5" x1="308.35" y1="754.63" x2="308.34" y2="755.33"/><line class="cls-5" x1="307.21" y1="754.63" x2="307.19" y2="755.2"/><line class="cls-5" x1="308" y1="754.64" x2="307.99" y2="755.3"/><line class="cls-5" x1="307.63" y1="755.32" x2="307.65" y2="754.61"/><polyline class="cls-5" points="307.28 755.24 307.32 755.29 307.37 755.28 307.38 754.62 307.34 754.62 307.3 754.67"/><line class="cls-5" x1="307.28" y1="755.2" x2="305.91" y2="755.21"/><line class="cls-5" x1="305.93" y1="754.64" x2="307.3" y2="754.67"/><line class="cls-5" x1="305.8" y1="754.64" x2="305.78" y2="755.17"/><polyline class="cls-5" points="305.93 755.61 305.53 755.49 305.34 755.28 305.29 754.93 305.31 754.35 305.35 754.26 305.39 754.26 306.05 754.19 306.31 754.23 306.36 754.31 306.37 754.45"/><polyline class="cls-5" points="306.15 755.68 305.93 755.61 305.91 755.21 305.65 755.13"/><polyline class="cls-5" points="305.97 754.46 305.93 754.64 305.67 754.65"/><line class="cls-5" x1="307.12" y1="753.53" x2="307.11" y2="754.37"/><polyline class="cls-5" points="334.87 751.95 334.92 752.08 335.07 752.38 335.26 752.77 335.63 753.33 335.82 753.54"/><line class="cls-5" x1="335.86" y1="753.49" x2="336.93" y2="753.89"/><line class="cls-5" x1="337.43" y1="754.14" x2="337.4" y2="754.58"/><line class="cls-5" x1="336.56" y1="754.57" x2="336.59" y2="754.08"/><line class="cls-5" x1="336.5" y1="754.08" x2="336.48" y2="754.57"/><line class="cls-5" x1="335.73" y1="754.55" x2="337.4" y2="754.58"/><line class="cls-5" x1="335.82" y1="754.73" x2="337.67" y2="754.78"/><polyline class="cls-5" points="337.47 754.13 337.03 754.11 335.57 754.08"/><line class="cls-5" x1="335.88" y1="755.03" x2="335.52" y2="753.81"/><line class="cls-5" x1="335.3" y1="753.82" x2="335.7" y2="755.04"/><line class="cls-5" x1="335.04" y1="753.83" x2="335.48" y2="755.05"/><line class="cls-5" x1="334.77" y1="753.84" x2="335.26" y2="755.06"/><polyline class="cls-5" points="336.71 755.04 336.69 755.49 336.16 755.51"/><path class="cls-5" d="M328.13,754.94l.11-.62a3,3,0,0,1,5.24-1.09l.33.56"/><line class="cls-5" x1="334.19" y1="755.63" x2="334.17" y2="755.19"/><polyline class="cls-5" points="335.04 755.07 334.08 755.19 334.01 754.53 333.81 753.88 333.8 753.79 334.29 753.77 334.55 753.81"/><polyline class="cls-5" points="337.42 753.96 337.32 753.7 337.27 753.52 337.13 753.49 337.15 753.84"/><polyline class="cls-5" points="310.52 750.54 310.35 750.54 309.73 750.53 309.38 750.5"/><polyline class="cls-5" points="310.31 750.72 309.79 750.74 309.03 750.6 308.72 750.52"/><polyline class="cls-5" points="318.1 751.78 318.23 751.73 318.54 751.72 319.02 751.74 319.06 751.65 319.01 751.57 319.01 751.52 318.71 751.53 318.48 751.5 318.26 751.5 318.18 751.47"/><polygon class="cls-5" points="318.06 751.78 317.97 751.74 317.92 751.61 317.96 751.47 318.08 751.43 318.18 751.51 318.22 751.6 318.19 751.73 318.06 751.78"/><polygon class="cls-5" points="327.61 751.97 327.62 752.24 328.24 752.21 328.27 751.95 327.61 751.97"/><polyline class="cls-5" points="335.23 756.42 334.74 756.35 334.47 756.19 334.24 755.85"/><polyline class="cls-5" points="335.23 756.42 336.06 756.34 337.2 756.21 336.96 755.83 336.82 755.43 336.81 755.26 336.89 754.99"/><line class="cls-5" x1="317.06" y1="754.46" x2="316.91" y2="753.94"/><line class="cls-5" x1="320.51" y1="755.82" x2="326.58" y2="755.89"/><line class="cls-5" x1="317.16" y1="755.78" x2="319.54" y2="755.81"/><line class="cls-5" x1="312.87" y1="749.65" x2="313.78" y2="749.31"/><polyline class="cls-5" points="310.32 750.94 310.92 750.61 311.78 750.09"/><line class="cls-5" x1="310.91" y1="751.36" x2="311.64" y2="751.06"/><polyline class="cls-5" points="310 751.79 309.06 752.31 308.11 752.92"/><polygon class="cls-5" points="316.08 750.67 317.04 750.67 316.62 748.75 315.7 748.97 315.13 749.12 314.39 749.37 313.96 749.52 313.7 749.71 313.62 749.8 313.58 749.89 313.59 750.15 313.64 750.24 313.77 750.32 313.91 750.4 314.09 750.48 314.31 750.52 315.02 750.58 316.08 750.67"/><polyline class="cls-5" points="314.98 750.76 314.27 750.7 314.05 750.62 313.87 750.54 313.69 750.5 313.51 750.37 313.46 750.2 313.41 750.07 313.4 749.85 313.49 749.72 313.61 749.58 313.87 749.39 314.35 749.2 315.08 748.95"/><polyline class="cls-5" points="315.78 752.05 316.06 752.39 316.24 752.56"/><line class="cls-5" x1="317.08" y1="754.9" x2="317.06" y2="754.46"/><polyline class="cls-5" points="333.51 753.01 333.23 752.72 332.96 752.46"/><polyline class="cls-5" points="310.32 750.9 309.62 750.93 308.95 750.82 308.46 750.75 307.97 750.6 307.62 750.52"/><line class="cls-5" x1="329.82" y1="752.19" x2="330.26" y2="752"/><polyline class="cls-5" points="328.87 752.67 328.62 752.9 328.41 753.08 328.24 753.36 328.12 753.62"/><polyline class="cls-5" points="327.73 754.96 327.57 755.36 327.53 755.5"/><polyline class="cls-5" points="330.8 751.23 330.26 751.03 329.55 750.88 328.89 750.78 328.31 750.67 327.78 750.6 327.38 750.57"/><polyline class="cls-5" points="336.54 755.05 337.5 754.92 337.67 754.79 337.61 754.22 337.46 753.96 337.06 753.93"/><line class="cls-5" x1="335.99" y1="753.4" x2="335.82" y2="753.54"/><line class="cls-5" x1="319.68" y1="748.32" x2="320.91" y2="748.28"/><line class="cls-5" x1="319.67" y1="748.19" x2="320.9" y2="748.1"/><line class="cls-5" x1="327.98" y1="755.7" x2="316.4" y2="755.54"/><polyline class="cls-5" points="326.99 752.79 326.81 755.13 326.73 755.31 326.61 755.44 326.39 755.5 320.4 755.47"/><polyline class="cls-5" points="326.87 756.53 327.52 756.33 327.86 756.05 328.02 755.57"/><polyline class="cls-5" points="326.99 752.79 327 752.17 326.94 751.6 326.66 751.31 326.21 751.06 325.68 750.95"/><line class="cls-5" x1="326.38" y1="750.92" x2="325.94" y2="750.98"/><line class="cls-5" x1="325.42" y1="750.96" x2="327.09" y2="751.02"/><polyline class="cls-5" points="328.13 754.95 328.1 755.3 328.02 755.57"/><line class="cls-5" x1="334.24" y1="755.85" x2="334.19" y2="755.63"/><polyline class="cls-5" points="335.3 753.82 334.55 753.81 335.04 755.07 336.19 755.02"/><line class="cls-5" x1="317.1" y1="756.44" x2="326.87" y2="756.53"/><polygon class="cls-5" points="331.19 755.7 330.93 755.62 330.7 755.41 330.6 755.11 330.72 754.8 330.93 754.57 331.24 754.51 331.5 754.59 331.73 754.8 331.83 755.11 331.71 755.42 331.5 755.64 331.19 755.7"/><line class="cls-5" x1="331.64" y1="753.66" x2="331.68" y2="753.57"/><polyline class="cls-5" points="332.7 754.72 332.35 754.73 331.99 754.57 331.76 754.36 331.61 754.01 331.64 753.66"/><line class="cls-5" x1="329.99" y1="754.25" x2="329.9" y2="754.21"/><polyline class="cls-5" points="331.29 753.59 331.21 753.94 330.96 754.22 330.66 754.36 330.31 754.37 329.99 754.25"/><line class="cls-5" x1="330.02" y1="756.01" x2="329.93" y2="756.11"/><polyline class="cls-5" points="329.79 754.57 330.1 754.73 330.29 755.03 330.35 755.38 330.23 755.74 330.02 756.01"/><line class="cls-5" x1="331.71" y1="756.52" x2="331.76" y2="756.6"/><polyline class="cls-5" points="330.25 756.27 330.55 756.08 330.9 755.98 331.21 756.05 331.52 756.22 331.71 756.52"/><line class="cls-5" x1="332.06" y1="756.37" x2="332.11" y2="756.46"/><line class="cls-5" x1="332.71" y1="755.07" x2="332.84" y2="755.06"/><polyline class="cls-5" points="332.06 756.37 331.91 756.03 331.94 755.67 332.11 755.36 332.36 755.17 332.71 755.07"/><line class="cls-5" x1="331.54" y1="755.47" x2="331.53" y2="755.42"/><line class="cls-5" x1="331.6" y1="754.81" x2="331.6" y2="754.76"/><line class="cls-5" x1="330.89" y1="754.7" x2="330.89" y2="754.66"/><line class="cls-5" x1="330.83" y1="755.41" x2="330.83" y2="755.36"/><polygon class="cls-5" points="331.25 754.86 331.16 754.87 331.08 754.96 331.04 755.05 331.04 755.18 331.09 755.27 331.14 755.35 331.23 755.35 331.31 755.3 331.35 755.21 331.39 755.08 331.38 754.95 331.34 754.86 331.25 754.86"/><path class="cls-5" d="M331.19,756.71l-.49-.07-.45-.25a1.61,1.61,0,0,1,.46-2.84l.52-.07.49.07a1.61,1.61,0,0,1,.42,2.84l-.43.24Z"/><path class="cls-5" d="M331.2,756.89l-.53-.11-.49-.24a1.78,1.78,0,0,1,.53-3.15l.52-.07.53.11.49.24.41.38.24.52.07.53-.07.57-.29.5-.38.37-.52.24Z"/><path class="cls-5" d="M331.19,757.73l-.71-.06-.63-.28a2.68,2.68,0,0,1,.68-4.87l.7-.07.71.1a2.65,2.65,0,0,1,.54,4.86l-.61.24Z"/><line class="cls-5" x1="337.07" y1="753.93" x2="335.3" y2="753.82"/><polyline class="cls-5" points="336.54 755.05 336.19 755.02 336.16 755.51"/><polyline class="cls-5" points="335.89 753.27 335.89 753.09 335.83 752.66 335.63 752.14 335.19 752.07"/><polyline class="cls-5" points="335.99 753.4 335.14 752.02 333.05 751.49 330.35 751.16 327.66 751"/><polyline class="cls-5" points="327 750.9 327.21 750.8 327.34 750.66 327.47 750.48 326.76 750.38 326.72 750.47 326.59 750.6 326.24 750.71 326.02 750.71 325.85 750.68 325.62 750.6 325.44 750.48"/><path class="cls-5" d="M325.08,750.09l.54.42c.39.19.56.28,1,0l.13-.14-.59-.46-.91-.67-.73-.54"/><line class="cls-5" x1="325.19" y1="750.92" x2="326.03" y2="750.93"/><line class="cls-5" x1="324.53" y1="750.77" x2="324.84" y2="750.76"/><line class="cls-5" x1="317.22" y1="750.67" x2="323.6" y2="750.77"/><line class="cls-5" x1="324.67" y1="750.95" x2="325.19" y2="750.92"/><line class="cls-5" x1="316.08" y1="750.85" x2="323.57" y2="750.9"/><polyline class="cls-5" points="325.08 750.09 324.62 749.76 323.85 749.08 323.25 748.54 323.07 748.41 322.85 748.25 322.66 748.08 322.61 747.99 322.61 747.95 322.65 747.86 322.73 747.59 323.09 747.75"/><polyline class="cls-5" points="322.56 747.82 322.68 747.54 322.55 747.51 322.11 747.48"/><polyline class="cls-5" points="323.09 747.75 323.27 747.83 323.49 747.96 323.67 748.08 323.95 748.29"/><polyline class="cls-5" points="322.56 747.82 322.57 748.08 322.8 748.29"/><line class="cls-5" x1="324.49" y1="748.66" x2="323.94" y2="748.29"/><polyline class="cls-5" points="325.44 750.47 324.85 750.06 324.35 749.59 323.67 749 323.25 748.62 322.8 748.29"/><path class="cls-5" d="M324.84,750.76l-.83-.89c-.65-.48-1.24-1.46-2.09-1.63h-.26"/><polyline class="cls-5" points="325.19 750.92 324.14 749.78 323 748.72 322.5 748.35 322.23 748.14 321.92 748.1 321.65 748.07"/><line class="cls-5" x1="321.66" y1="748.25" x2="322.24" y2="750.73"/><line class="cls-5" x1="320.9" y1="748.1" x2="321.65" y2="748.07"/><polyline class="cls-5" points="322.11 750.74 321.52 748.25 320.91 748.28"/><line class="cls-5" x1="319.79" y1="755.45" x2="320.4" y2="755.47"/><polyline class="cls-5" points="318.46 755.33 318.19 755.12 317.95 754.78 317.74 753.73"/><polyline class="cls-5" points="319.79 755.45 318.99 755.44 318.46 755.33"/><polyline class="cls-5" points="317.1 756.44 316.61 756.28 316.47 756.11 316.45 755.71 316.38 755.1"/><path class="cls-5" d="M313.44,752l.66.11a3.14,3.14,0,0,1,2.21,2.33l.07.66"/><polyline class="cls-5" points="317.74 753.73 317.19 752.12 317.03 751.38 317.06 751.07 317.18 750.89 317.23 750.84"/><line class="cls-5" x1="316.87" y1="748.53" x2="315.65" y2="748.79"/><line class="cls-5" x1="316.79" y1="748.7" x2="316.79" y2="748.66"/><polyline class="cls-5" points="316.92 748.7 316.97 748.83 317.35 750.71"/><line class="cls-5" x1="316.74" y1="748.58" x2="317.23" y2="750.84"/><polyline class="cls-5" points="319.67 748.19 318.93 748.22 318.18 748.34 317.53 748.41 316.87 748.53"/><polyline class="cls-5" points="319.68 748.33 318.93 748.4 318.23 748.47 317.53 748.59 316.92 748.7"/><line class="cls-5" x1="315.08" y1="748.95" x2="315.65" y2="748.79"/><line class="cls-5" x1="314.98" y1="750.76" x2="316.08" y2="750.85"/><polyline class="cls-5" points="311.3 750.07 311.04 750.25 310.86 750.17"/><path class="cls-5" d="M311,750.25l-.08.18a5.14,5.14,0,0,1-2.1,1.45l-.3.1"/><line class="cls-5" x1="306.59" y1="754.44" x2="310.41" y2="754.42"/><polyline class="cls-5" points="310.29 754.64 310.48 753.93 310.86 753.3 311.36 752.75 312 752.33 312.7 752.08 313.44 752.01"/><polyline class="cls-5" points="310.29 754.64 310.1 755.4 309.73 756.07 307.93 756.05"/><polygon class="cls-5" points="313.32 755.49 313.01 755.41 312.78 755.2 312.72 754.9 312.8 754.59 313.01 754.36 313.31 754.3 313.63 754.37 313.85 754.59 313.91 754.89 313.83 755.2 313.62 755.43 313.32 755.49"/><line class="cls-5" x1="313.72" y1="753.45" x2="313.76" y2="753.36"/><polyline class="cls-5" points="314.78 754.51 314.43 754.52 314.11 754.4 313.83 754.15 313.74 753.8 313.72 753.45"/><line class="cls-5" x1="312.07" y1="754.04" x2="311.98" y2="754"/><polyline class="cls-5" points="313.41 753.37 313.29 753.73 313.08 754 312.78 754.15 312.43 754.16 312.07 754.04"/><line class="cls-5" x1="312.14" y1="755.8" x2="312.06" y2="755.89"/><polyline class="cls-5" points="311.91 754.36 312.18 754.57 312.37 754.87 312.43 755.22 312.35 755.53 312.14 755.8"/><line class="cls-5" x1="313.83" y1="756.3" x2="313.88" y2="756.39"/><polyline class="cls-5" points="312.37 756.05 312.63 755.87 312.98 755.77 313.33 755.84 313.65 756 313.83 756.3"/><line class="cls-5" x1="314.14" y1="756.16" x2="314.18" y2="756.25"/><line class="cls-5" x1="314.83" y1="754.86" x2="314.92" y2="754.85"/><polyline class="cls-5" points="314.14 756.16 314.04 755.86 314.07 755.5 314.19 755.19 314.49 754.96 314.83 754.86"/><line class="cls-5" x1="313.62" y1="755.3" x2="313.62" y2="755.26"/><line class="cls-5" x1="313.68" y1="754.59" x2="313.68" y2="754.55"/><line class="cls-5" x1="313.02" y1="754.53" x2="313.02" y2="754.49"/><line class="cls-5" x1="312.95" y1="755.19" x2="312.95" y2="755.15"/><path class="cls-5" d="M313.33,754.65h-.09l0,.09,0,.09v.26l.09,0c.23,0,.27-.29.16-.44Z"/><path class="cls-5" d="M313.31,756.5l-.53-.07-.45-.25a1.62,1.62,0,0,1,.5-2.84l.48-.06.53.07a1.64,1.64,0,0,1,.42,2.85l-.48.24Z"/><path class="cls-5" d="M313.28,756.68l-.53-.11-.5-.24a1.76,1.76,0,0,1,.54-3.1l.57-.11.53.11a1.78,1.78,0,0,1,.47,3.11l-.52.24Z"/><path class="cls-5" d="M313.27,757.56l-.67-.11-.63-.28a2.63,2.63,0,0,1,.69-4.82l.7-.12.66.1a2.65,2.65,0,0,1,.59,4.86l-.65.25Z"/><polyline class="cls-5" points="308.21 754.41 308 753.5 306.73 753.59"/><polyline class="cls-5" points="308.38 751.99 308 752.27 307.65 752.54 307.23 752.91 306.94 753.23 306.73 753.59 306.72 754.43"/><line class="cls-5" x1="308.56" y1="751.98" x2="308.29" y2="751.95"/><line class="cls-5" x1="306.15" y1="755.68" x2="306.55" y2="755.71"/><line class="cls-5" x1="305.67" y1="754.65" x2="305.65" y2="755.13"/><line class="cls-5" x1="306.59" y1="754.44" x2="305.97" y2="754.46"/><polyline class="cls-5" points="308.29 751.95 308.28 751.68 308.23 751.42 307.82 751.26 307.51 751.1"/><polyline class="cls-5" points="310.86 750.17 310.77 750.18 309.42 750.41 308.45 750.44"/><polyline class="cls-5" points="307.51 751.1 306.83 750.6 306.9 750.07 307.39 750.36 308.45 750.44"/><line class="cls-5" x1="306.55" y1="755.71" x2="307.93" y2="756.05"/><line class="cls-5" x1="58.78" y1="713.99" x2="54.6" y2="713.81"/><polyline class="cls-5" points="59.35 714.38 61.24 718.78 61.42 720.06 61.42 721.33 61.28 722.61"/><line class="cls-5" x1="61.24" y1="722.91" x2="61.24" y2="724.98"/><line class="cls-5" x1="61.02" y1="725.24" x2="60.27" y2="725.24"/><line class="cls-5" x1="60.01" y1="724.98" x2="60.01" y2="723.18"/><line class="cls-5" x1="60.67" y1="723.18" x2="54.6" y2="723.18"/><line class="cls-5" x1="58.69" y1="722.91" x2="60.71" y2="722.91"/><line class="cls-5" x1="54.6" y1="722.08" x2="60.98" y2="722.08"/><line class="cls-5" x1="54.6" y1="721.24" x2="61.42" y2="721.24"/><polyline class="cls-5" points="54.6 720.85 61.42 720.85 61.24 720.58"/><line class="cls-5" x1="60.45" y1="719.44" x2="58.51" y2="719.44"/><line class="cls-5" x1="59.22" y1="714.56" x2="60.58" y2="717.77"/><line class="cls-5" x1="58.65" y1="714.16" x2="54.6" y2="713.99"/><polyline class="cls-5" points="54.6 717.77 60.58 717.77 60.45 719.44 60.58 719.31 60.89 717.99"/><polyline class="cls-5" points="60.58 717.99 59.52 717.86 58.51 719.44 59.35 717.77"/><line class="cls-5" x1="60.49" y1="719.57" x2="58.82" y2="719.57"/><line class="cls-5" x1="58.6" y1="719.75" x2="58.38" y2="720.58"/><polyline class="cls-5" points="60.45 720.58 60.49 719.57 60.67 719.62"/><line class="cls-5" x1="61.02" y1="719.97" x2="61.06" y2="720.58"/><polyline class="cls-5" points="61.24 720.58 61.15 720.23 61.15 719.88 61.37 719.57"/><polyline class="cls-5" points="60.67 719.62 60.89 719.75 61.02 719.97"/><line class="cls-5" x1="58.6" y1="719.79" x2="54.6" y2="719.79"/><polyline class="cls-5" points="58.6 719.75 58.69 719.62 58.82 719.57"/><polyline class="cls-5" points="61.28 722.61 61.2 722.91 60.98 723.09 60.67 723.18"/><polyline class="cls-5" points="58.78 713.99 59.13 714.12 59.35 714.38"/><polyline class="cls-5" points="58.65 714.16 59 714.29 59.22 714.56"/><polyline class="cls-5" points="58.38 720.58 58.29 720.72 54.6 720.72"/><line class="cls-5" x1="58.38" y1="720.58" x2="61.24" y2="720.58"/><polyline class="cls-5" points="58.51 719.44 58.38 719.57 54.6 719.57"/><polyline class="cls-5" points="61.24 721.24 61.24 721.59 61.2 721.95"/><polyline class="cls-5" points="60.98 722.08 61.02 722.43 60.93 722.78"/><line class="cls-5" x1="61.24" y1="722.83" x2="60.98" y2="722.52"/><line class="cls-5" x1="60.89" y1="717.99" x2="61.94" y2="717.81"/><line class="cls-5" x1="62.08" y1="717.55" x2="61.94" y2="716.89"/><line class="cls-5" x1="61.77" y1="716.71" x2="60.36" y2="716.71"/><polyline class="cls-5" points="62.08 717.55 62.08 717.73 61.94 717.82"/><polyline class="cls-5" points="61.77 716.71 61.9 716.76 61.94 716.89"/><polyline class="cls-5" points="58.69 722.91 58.29 722.74 54.6 722.74"/><line class="cls-5" x1="60.93" y1="722.78" x2="60.71" y2="722.91"/><line class="cls-5" x1="61.2" y1="721.95" x2="60.98" y2="722.08"/><polyline class="cls-5" points="61.24 724.98 61.2 725.16 61.02 725.25"/><polyline class="cls-5" points="60.27 725.25 60.1 725.16 60.01 724.98"/><polyline class="cls-5" points="60.01 723.92 59.09 723.92 58.38 724.19 56.75 724.19 55.61 723.92 54.6 723.97"/><polyline class="cls-5" points="60.01 723.66 59.17 723.57 59.09 723.18"/><polyline class="cls-5" points="50.12 723.18 50.03 723.57 49.19 723.66"/><polyline class="cls-5" points="54.6 723.97 53.59 723.92 52.45 724.19 50.82 724.19 50.12 723.92 49.19 723.92"/><polyline class="cls-5" points="49.19 724.98 49.15 725.16 48.97 725.25"/><polyline class="cls-5" points="48.22 725.25 48.05 725.16 47.96 724.98"/><line class="cls-5" x1="48.22" y1="722.08" x2="48.05" y2="721.95"/><line class="cls-5" x1="48.49" y1="722.91" x2="48.31" y2="722.78"/><polyline class="cls-5" points="54.6 722.74 50.91 722.74 50.51 722.91"/><polyline class="cls-5" points="47.26 716.89 47.3 716.76 47.43 716.72"/><polyline class="cls-5" points="47.3 717.81 47.12 717.73 47.12 717.55"/><line class="cls-5" x1="47.43" y1="716.71" x2="48.84" y2="716.76"/><line class="cls-5" x1="47.12" y1="717.55" x2="47.26" y2="716.89"/><line class="cls-5" x1="48.31" y1="717.99" x2="47.3" y2="717.81"/><line class="cls-5" x1="47.96" y1="722.83" x2="48.22" y2="722.52"/><polyline class="cls-5" points="48.31 722.78 48.18 722.43 48.22 722.08"/><polyline class="cls-5" points="48.05 721.95 47.96 721.59 48 721.25"/><polyline class="cls-5" points="54.6 719.57 50.82 719.57 50.69 719.44"/><line class="cls-5" x1="50.86" y1="720.58" x2="47.96" y2="720.58"/><polyline class="cls-5" points="54.6 720.72 50.91 720.72 50.86 720.58"/><polyline class="cls-5" points="50.03 714.56 50.25 714.29 50.55 714.16"/><polyline class="cls-5" points="49.9 714.38 50.12 714.12 50.42 713.99"/><polyline class="cls-5" points="48.53 723.18 48.22 723.09 48 722.91 47.91 722.61"/><polyline class="cls-5" points="50.38 719.57 50.51 719.62 50.6 719.75"/><line class="cls-5" x1="50.6" y1="719.79" x2="54.6" y2="719.79"/><polyline class="cls-5" points="48.22 719.97 48.31 719.75 48.58 719.62"/><polyline class="cls-5" points="47.87 719.57 48.05 719.88 48.09 720.23 47.96 720.58"/><line class="cls-5" x1="48.22" y1="719.97" x2="48.14" y2="720.58"/><polyline class="cls-5" points="48.58 719.62 48.71 719.57 48.75 720.58"/><line class="cls-5" x1="50.6" y1="719.75" x2="50.86" y2="720.58"/><line class="cls-5" x1="48.71" y1="719.57" x2="50.38" y2="719.57"/><polyline class="cls-5" points="49.85 717.77 50.69 719.44 49.68 717.9 48.62 717.99"/><polyline class="cls-5" points="48.31 717.99 48.62 719.31 48.75 719.44 48.62 717.77 54.6 717.77"/><line class="cls-5" x1="50.55" y1="714.16" x2="54.6" y2="713.99"/><line class="cls-5" x1="50.03" y1="714.56" x2="48.62" y2="717.77"/><line class="cls-5" x1="48.75" y1="719.44" x2="50.69" y2="719.44"/><polyline class="cls-5" points="47.96 720.58 47.78 720.85 54.6 720.85"/><line class="cls-5" x1="54.6" y1="721.24" x2="47.78" y2="721.24"/><line class="cls-5" x1="54.6" y1="722.08" x2="48.22" y2="722.08"/><line class="cls-5" x1="50.51" y1="722.91" x2="48.49" y2="722.91"/><line class="cls-5" x1="48.53" y1="723.18" x2="54.6" y2="723.18"/><line class="cls-5" x1="49.19" y1="724.98" x2="49.19" y2="723.18"/><line class="cls-5" x1="48.22" y1="725.24" x2="48.97" y2="725.24"/><line class="cls-5" x1="47.96" y1="722.91" x2="47.96" y2="724.98"/><polyline class="cls-5" points="47.91 722.61 47.78 721.33 47.83 720.06 47.96 718.78 49.9 714.38"/><line class="cls-5" x1="50.42" y1="713.99" x2="54.6" y2="713.81"/><polyline class="cls-5" points="31.2 720.58 31.34 720.5 31.43 720.27 31.25 720.23"/><polyline class="cls-5" points="31.25 720.58 31.12 720.5 31.03 720.27 31.25 720.23"/><line class="cls-5" x1="37.63" y1="718.16" x2="37.58" y2="718.34"/><polyline class="cls-5" points="37.67 717.95 37.58 717.81 37.36 717.73"/><line class="cls-5" x1="36.75" y1="717.73" x2="36.97" y2="717.73"/><line class="cls-5" x1="24.83" y1="718.16" x2="24.87" y2="718.34"/><polyline class="cls-5" points="24.79 717.95 24.87 717.81 25.09 717.73"/><line class="cls-5" x1="25.71" y1="717.73" x2="25.53" y2="717.73"/><polyline class="cls-5" points="31.25 723.05 32.17 723.05 32.39 723 32.44 722.83 32.48 722.56"/><polyline class="cls-5" points="31.25 723.05 30.28 723.05 30.11 723 30.02 722.83 30.02 722.56"/><polyline class="cls-5" points="31.25 722.3 32.88 722.3 34.9 722.21 35.96 722.12"/><polyline class="cls-5" points="31.25 721.82 31.91 721.82 33.8 721.73 35.96 721.68"/><polyline class="cls-5" points="31.25 715.48 33.05 715.48 33.89 715.57 34.5 715.75 34.85 715.88 35.12 716.14 35.38 716.58 35.6 716.89 35.78 717.33 36 717.73 36.04 717.95 36 718.12 35.96 718.25 35.56 718.21 35.08 718.21"/><path class="cls-5" d="M31.25,715.13h.53c3.15.13,3.36-.1,4.57,2.86l.09.48"/><polyline class="cls-5" points="31.25 723.49 34.28 723.49 34.85 723.53 35.43 723.49 36.04 723.4 36.48 723.18 36.75 723"/><polyline class="cls-5" points="31.25 718.65 32.61 718.65 33.31 718.69"/><line class="cls-5" x1="34.46" y1="722.74" x2="34.46" y2="722.52"/><line class="cls-5" x1="36.09" y1="722.65" x2="36.04" y2="722.48"/><polyline class="cls-5" points="34.46 722.74 34.46 722.96 34.68 723.13 35.25 723.18 35.78 723.18 35.95 723 36.04 722.87 36.09 722.65"/><polygon class="cls-5" points="37.27 721.99 36.26 722.13 36.26 721.68 36.4 721.55 37.1 721.51 37.32 721.6 37.27 721.99"/><polyline class="cls-5" points="32.04 718.34 33.05 718.38 33.36 718.38"/><polyline class="cls-5" points="33.23 719.57 33.23 719.13 33.32 718.69 33.36 718.38"/><polyline class="cls-5" points="37.58 721.2 37.54 720.98 37.58 720.45 37.58 720.01 37.49 719.7"/><polyline class="cls-5" points="35.25 719.75 35.29 719.4 35.47 719.09 35.6 718.82 35.82 718.6"/><polygon class="cls-5" points="36.48 718.96 36.17 719 35.95 719.13 35.78 719.4 35.69 719.7 35.73 720.06 35.87 720.32 36.09 720.45 36.35 720.5 36.61 720.41 36.83 720.23 36.97 719.92 37.01 719.57 36.92 719.31 36.7 719.09 36.48 718.96"/><polygon class="cls-5" points="36.48 718.87 36.17 718.91 35.87 719.09 35.69 719.35 35.6 719.7 35.65 720.06 35.82 720.37 36.04 720.54 36.35 720.58 36.66 720.5 36.92 720.28 37.05 719.92 37.1 719.57 36.97 719.26 36.75 719 36.48 718.87"/><polyline class="cls-5" points="34.68 721.2 34.72 720.89 34.9 720.32 35.03 719.7 35.3 719.04"/><polyline class="cls-5" points="36.97 718.6 37.01 718.52 37.32 718.52 37.67 718.43 37.76 718.21 37.8 717.9 37.67 717.73 37.41 717.59 36.66 717.59 36.53 717.82 36.53 718.03 36.57 718.21 36.57 718.47"/><line class="cls-5" x1="32.04" y1="718.34" x2="31.25" y2="718.3"/><line class="cls-5" x1="32.22" y1="721.42" x2="31.25" y2="721.42"/><line class="cls-5" x1="33.36" y1="722.56" x2="31.25" y2="722.56"/><line class="cls-5" x1="34.46" y1="721.2" x2="31.25" y2="721.24"/><line class="cls-5" x1="32.74" y1="723.62" x2="31.25" y2="723.57"/><polyline class="cls-5" points="35.08 718.21 34.06 718.16 32.83 718.08"/><line class="cls-5" x1="35.21" y1="720.63" x2="35.25" y2="720.89"/><line class="cls-5" x1="35.21" y1="720.14" x2="35.21" y2="720.32"/><polyline class="cls-5" points="31.25 718.12 33.84 718.25 34.94 718.34 36 718.43 36.53 718.47"/><path class="cls-5" d="M35.29,719l.31-.26c.81-.69,1.65-.23,1.8.75l.09.17"/><polyline class="cls-5" points="32.22 721.42 35.16 721.38 37.1 721.33 37.72 721.29"/><polyline class="cls-5" points="33.36 722.56 36.66 722.48 37.27 722.43"/><polyline class="cls-5" points="34.46 721.2 36.83 721.15 37.32 721.11 37.54 721.2 37.71 721.25 37.71 721.73 37.67 721.95 37.71 722.04 37.63 722.12 37.49 722.34 37.27 722.43 36.97 722.87"/><polyline class="cls-5" points="32.74 723.62 34.15 723.71 35.73 723.79 36.31 723.57 36.75 723.27 36.97 722.87"/><line class="cls-5" x1="37.36" y1="725.24" x2="36.04" y2="725.24"/><polyline class="cls-5" points="37.54 725.07 37.49 725.2 37.36 725.25"/><line class="cls-5" x1="37.54" y1="722.3" x2="37.54" y2="725.07"/><polyline class="cls-5" points="36.04 725.25 35.91 725.2 35.87 725.07 35.87 723.75"/><polyline class="cls-5" points="31.25 722.3 29.58 722.3 27.55 722.21 26.54 722.12"/><polyline class="cls-5" points="31.25 721.82 30.55 721.82 28.66 721.73 26.54 721.68"/><polyline class="cls-5" points="31.25 715.48 29.4 715.48 28.57 715.57 28 715.75 27.6 715.88 27.34 716.14 27.07 716.58 26.9 716.89 26.68 717.33 26.5 717.73 26.41 717.95 26.46 718.12 26.5 718.25 26.9 718.21 27.38 718.21"/><path class="cls-5" d="M31.25,715.13h-.57c-3,.11-3.43,0-4.57,2.86l-.09.48"/><polyline class="cls-5" points="31.25 723.49 28.22 723.49 27.6 723.53 27.07 723.49 26.46 723.4 26.02 723.18 25.71 723"/><polyline class="cls-5" points="31.25 718.65 29.84 718.65 29.18 718.69"/><line class="cls-5" x1="28" y1="722.74" x2="28" y2="722.52"/><line class="cls-5" x1="26.41" y1="722.65" x2="26.46" y2="722.48"/><polyline class="cls-5" points="28 722.74 28 722.96 27.82 723.13 27.2 723.18 26.72 723.18 26.5 723 26.46 722.87 26.41 722.65"/><polygon class="cls-5" points="25.23 721.99 26.19 722.13 26.19 721.68 26.06 721.55 25.4 721.51 25.14 721.6 25.23 721.99"/><polyline class="cls-5" points="30.41 718.34 29.4 718.38 29.09 718.38"/><polyline class="cls-5" points="29.27 719.57 29.18 718.69 29.09 718.38"/><polyline class="cls-5" points="24.92 721.2 24.96 720.98 24.87 720.45 24.92 720.01 25 719.7"/><polyline class="cls-5" points="27.2 719.75 27.16 719.4 27.03 719.09 26.9 718.82 26.63 718.6"/><polygon class="cls-5" points="26.02 718.96 26.28 719 26.54 719.13 26.72 719.4 26.81 719.7 26.76 720.06 26.59 720.32 26.37 720.45 26.11 720.5 25.84 720.41 25.62 720.23 25.49 719.92 25.45 719.62 25.58 719.31 25.75 719.09 26.02 718.96"/><path class="cls-5" d="M26,718.87l.35,0,.26.17.22.26,0,.35v.35l-.17.31-.26.17-.31,0c-.71-.08-.85-.75-.62-1.32l.22-.26Z"/><polyline class="cls-5" points="27.82 721.2 27.73 720.94 27.55 720.32 27.47 719.7 27.16 719.04"/><polyline class="cls-5" points="25.49 718.65 25.45 718.52 25.14 718.52 24.79 718.43 24.7 718.21 24.65 717.9 24.79 717.73 25.09 717.64 25.8 717.64 25.93 717.81 25.93 718.03 25.88 718.21 25.88 718.47"/><line class="cls-5" x1="32.83" y1="718.08" x2="29.62" y2="718.08"/><line class="cls-5" x1="30.41" y1="718.34" x2="31.25" y2="718.3"/><line class="cls-5" x1="29.75" y1="718.21" x2="29.97" y2="718.21"/><line class="cls-5" x1="30.24" y1="721.42" x2="31.25" y2="721.42"/><line class="cls-5" x1="29.09" y1="722.56" x2="31.25" y2="722.56"/><line class="cls-5" x1="28" y1="721.2" x2="31.25" y2="721.24"/><line class="cls-5" x1="29.75" y1="723.62" x2="31.25" y2="723.57"/><polyline class="cls-5" points="27.38 718.21 28.39 718.16 29.62 718.08"/><line class="cls-5" x1="27.25" y1="720.63" x2="27.2" y2="720.89"/><line class="cls-5" x1="27.25" y1="720.14" x2="27.25" y2="720.32"/><polyline class="cls-5" points="31.25 718.12 28.66 718.25 27.51 718.34 26.5 718.43 25.93 718.47"/><polyline class="cls-5" points="27.16 719.04 26.85 718.78 26.63 718.61 26.24 718.47 25.93 718.47 25.71 718.52 25.49 718.65 25.31 718.87 25.18 719.09 25.14 719.35 25.05 719.57 25 719.7"/><polyline class="cls-5" points="30.24 721.42 27.29 721.42 25.4 721.33 24.74 721.29"/><polyline class="cls-5" points="29.09 722.56 25.8 722.48 25.18 722.43"/><polyline class="cls-5" points="28 721.2 25.62 721.15 25.14 721.11 24.92 721.2 24.74 721.25 24.78 721.46 24.74 721.73 24.78 721.95 24.78 722.04 24.83 722.12 24.96 722.34 25.18 722.43 25.49 722.87"/><polyline class="cls-5" points="29.75 723.62 28.3 723.71 26.76 723.79 26.19 723.57 25.75 723.27 25.49 722.87"/><polyline class="cls-5" points="26.41 725.25 25.09 725.25 25 725.2 24.92 725.07 24.92 722.3"/><polyline class="cls-5" points="26.59 725.07 26.54 725.2 26.41 725.25"/><line class="cls-5" x1="26.59" y1="723.75" x2="26.59" y2="725.07"/><line class="cls-5" x1="30.24" y1="715.48" x2="32.26" y2="715.48"/><path class="cls-5" d="M320,704l-1.05-.35a13.35,13.35,0,0,0-7.52,0l-1.06.35"/><line class="cls-5" x1="321" y1="712.24" x2="309.43" y2="712.24"/><line class="cls-5" x1="320.16" y1="712.24" x2="320.16" y2="713.6"/><line class="cls-5" x1="308.64" y1="711.67" x2="308.64" y2="713.64"/><line class="cls-5" x1="310.27" y1="712.24" x2="310.27" y2="713.65"/><polyline class="cls-5" points="321.39 707.23 319.33 707 317.26 706.92 315.19 706.87 313.17 706.92 311.1 707 309.04 707.23"/><line class="cls-5" x1="322.01" y1="708.19" x2="308.38" y2="708.19"/><line class="cls-5" x1="322.1" y1="710.92" x2="308.33" y2="710.92"/><path class="cls-5" d="M319.11,707l-.13-.17a1,1,0,0,0-1.41-.09l-.18.18"/><path class="cls-5" d="M319.24,707l-.13-.17a1.17,1.17,0,0,0-1.71-.13l-.13.22"/><line class="cls-5" x1="311.59" y1="712.24" x2="311.89" y2="712.55"/><line class="cls-5" x1="310.53" y1="713.25" x2="310.27" y2="713.25"/><line class="cls-5" x1="319.9" y1="713.25" x2="320.16" y2="713.25"/><polyline class="cls-5" points="310.4 704.01 310.23 704.1 310.09 704.19 310 704.32 309.92 704.5 309.83 704.67"/><polyline class="cls-5" points="320.56 704.63 320.51 704.5 320.43 704.32 320.29 704.19 320.16 704.1 320.03 704.01"/><line class="cls-5" x1="321.48" y1="707.36" x2="321.88" y2="707.89"/><polyline class="cls-5" points="320.56 704.63 321.31 707.05 321.39 707.23 321.48 707.36"/><line class="cls-5" x1="308.9" y1="707.36" x2="308.55" y2="707.89"/><line class="cls-5" x1="309.83" y1="704.68" x2="309.08" y2="707.05"/><polyline class="cls-5" points="308.9 707.36 308.99 707.23 309.08 707.05"/><polyline class="cls-5" points="308.55 707.89 308.46 708.02 308.38 708.19 308.33 708.41 308.33 708.59"/><line class="cls-5" x1="308.42" y1="711.18" x2="308.64" y2="711.67"/><polyline class="cls-5" points="308.33 708.59 308.33 710.83 308.42 711.18"/><polyline class="cls-5" points="308.64 711.67 308.73 711.84 308.82 711.98 308.95 712.11 309.13 712.2 309.26 712.24 309.43 712.24"/><polyline class="cls-5" points="321 712.24 321.13 712.24 321.31 712.15 321.44 712.07 321.57 711.98 321.7 711.84 321.79 711.67"/><polyline class="cls-5" points="322.1 710.66 322.1 708.59 322.05 708.41 322.01 708.19 321.96 708.02 321.88 707.89"/><polyline class="cls-5" points="310.53 713.25 310.62 713.25 310.8 713.16 310.97 712.99 311.01 712.86 311.01 712.77"/><path class="cls-5" d="M319.37,712.77l0,.09c.09.28.11.28.35.39h.13"/><path class="cls-5" d="M320.16,713.6v.13c.17.42.09.36.44.53h.09"/><path class="cls-5" d="M309.74,714.26h.09a.55.55,0,0,0,.4-.53l0-.09"/><polyline class="cls-5" points="308.64 713.65 308.64 713.87 308.69 713.95 308.77 714.04 308.82 714.13 308.9 714.17 308.99 714.22 309.08 714.26 309.17 714.26"/><line class="cls-5" x1="319.37" y1="712.24" x2="319.37" y2="712.77"/><line class="cls-5" x1="311.02" y1="712.24" x2="311.02" y2="712.77"/><line class="cls-5" x1="318.84" y1="712.24" x2="318.49" y2="712.55"/><line class="cls-5" x1="312.99" y1="712.99" x2="317.44" y2="712.99"/><polyline class="cls-5" points="311.89 712.55 312.16 712.77 312.42 712.9 312.69 712.99 313 712.99"/><polyline class="cls-5" points="317.44 712.99 317.7 712.99 318.01 712.9 318.27 712.77 318.49 712.55"/><line class="cls-5" x1="320.43" y1="704.72" x2="321.17" y2="707.14"/><line class="cls-5" x1="310" y1="704.72" x2="309.26" y2="707.14"/><polyline class="cls-5" points="310.44 704.24 310.31 704.28 310.14 704.46 310.05 704.59 310 704.72"/><polyline class="cls-5" points="320.43 704.72 320.34 704.59 320.29 704.46 320.16 704.37 320.07 704.28 319.94 704.24 318.05 704.1 316.16 704.02 314.27 704.02 312.33 704.1 310.44 704.24"/><path class="cls-5" d="M310.71,709.12l-.13,0-.13,0a.8.8,0,0,0,.13,1.41h.22a.8.8,0,0,0,.13-1.41l-.13,0Z"/><path class="cls-5" d="M309.13,709.29H309l-.18.09-.09.09,0,.09,0,.09,0,.13V710c.11.18.06.34.31.44l.09,0h.18l.17-.09.09-.09,0-.09,0-.13,0-.09v-.22l0-.13,0-.09,0-.09-.09-.09-.17-.09Z"/><path class="cls-5" d="M319.72,709.12l-.13,0-.09,0c-.5.12-.6,1.17.09,1.41h.26l.09,0,.13-.09.09-.09,0-.09.09-.13V710l0-.17a1.16,1.16,0,0,0-.27-.62l-.13,0-.09,0Z"/><polygon class="cls-5" points="321.26 709.29 321.17 709.29 321.09 709.34 321 709.38 320.91 709.47 320.82 709.64 320.78 709.78 320.78 710 320.82 710.08 320.87 710.22 320.91 710.3 321 710.35 321.09 710.44 321.17 710.44 321.26 710.48 321.35 710.44 321.44 710.44 321.53 710.35 321.61 710.3 321.66 710.22 321.7 710.08 321.75 710 321.75 709.78 321.7 709.64 321.66 709.56 321.61 709.47 321.53 709.38 321.44 709.34 321.35 709.29 321.26 709.29"/><polyline class="cls-5" points="314.18 709.87 314.27 709.78 314.27 710.39"/><line class="cls-5" x1="314.18" y1="710.39" x2="314.31" y2="710.39"/><polyline class="cls-5" points="314.49 709.78 314.8 709.78 314.58 710.39"/><polyline class="cls-5" points="314.93 709.78 315.28 709.78 315.02 710.39"/><polyline class="cls-5" points="315.5 710.39 315.41 710.3 315.41 710.17 315.5 710.08 315.63 710.08 315.72 710 315.72 709.87 315.63 709.78 315.5 709.78 315.41 709.87 315.41 710 315.5 710.08"/><polyline class="cls-5" points="315.63 710.08 315.72 710.17 315.72 710.3 315.63 710.39 315.5 710.39"/><polyline class="cls-5" points="315.99 710.39 315.9 710.3 315.9 710.17 315.99 710.08 316.12 710.08 316.2 710 316.2 709.87 316.12 709.78 315.99 709.78 315.9 709.87 315.9 710 315.99 710.08"/><polyline class="cls-5" points="316.12 710.08 316.21 710.17 316.21 710.3 316.12 710.39 315.98 710.39"/><line class="cls-5" x1="322.1" y1="708.81" x2="308.33" y2="708.81"/><line class="cls-5" x1="321.79" y1="711.67" x2="321.79" y2="713.6"/><path class="cls-5" d="M321.26,714.26h.09c.34-.16.3-.22.44-.53v-.13"/><polyline class="cls-5" points="321.79 711.67 321.96 711.18 322.05 711.01 322.05 710.83 322.1 710.66"/><line class="cls-5" x1="309.17" y1="714.26" x2="309.74" y2="714.26"/><line class="cls-5" x1="320.69" y1="714.26" x2="321.26" y2="714.26"/><rect class="cls-5" x="313.83" y="709.51" width="2.73" height="1.19"/><rect class="cls-5" x="325.61" y="710.57" width="1.28" height="0.53"/><rect class="cls-5" x="329.97" y="710.52" width="2.6" height="0.49"/><rect class="cls-5" x="335.64" y="710.57" width="1.27" height="0.53"/><line class="cls-5" x1="338.15" y1="710.79" x2="336.92" y2="710.79"/><line class="cls-5" x1="335.64" y1="710.79" x2="332.56" y2="710.79"/><line class="cls-5" x1="329.97" y1="710.79" x2="326.89" y2="710.79"/><polyline class="cls-5" points="325.62 710.79 324.38 710.79 325.09 711.71 337.44 711.71 338.15 710.79"/><polygon class="cls-5" points="337.36 706.83 325.13 706.83 326.32 704.19 326.45 703.97 326.63 703.84 326.89 703.75 327.51 703.75 330.23 703.62 330.94 703.58 331.9 703.58 332.39 703.62 333.4 703.66 335.07 703.75 335.51 703.75 335.73 703.8 335.91 703.88 336.04 703.97 336.17 704.1 336.26 704.33 337.36 706.83"/><line class="cls-5" x1="337.66" y1="707.05" x2="324.87" y2="707.05"/><polyline class="cls-5" points="326.94 706.83 327.2 705.64 329.27 705.64 329.53 706.83"/><polyline class="cls-5" points="333 706.83 333.22 705.64 335.33 705.64 335.55 706.83"/><line class="cls-5" x1="331.24" y1="703.58" x2="331.24" y2="703.8"/><polygon class="cls-5" points="331.9 703.8 330.54 703.8 330.5 703.84 330.45 703.88 330.45 704.37 330.5 704.41 330.54 704.45 330.58 704.5 331.9 704.5 331.95 704.45 331.99 704.45 332.04 704.41 332.04 704.37 332.08 704.32 332.08 703.93 332.04 703.88 332.04 703.84 331.99 703.84 331.95 703.8 331.9 703.8"/><line class="cls-5" x1="338.37" y1="710.08" x2="324.16" y2="710.08"/><rect class="cls-5" x="335.82" y="708.9" width="1.36" height="0.92"/><rect class="cls-5" x="325.31" y="708.9" width="1.41" height="0.97"/><line class="cls-5" x1="334.72" y1="708.63" x2="334.41" y2="710.08"/><line class="cls-5" x1="327.81" y1="708.63" x2="328.12" y2="710.08"/><polygon class="cls-5" points="335.64 709.38 335.6 709.16 335.42 708.99 335.2 708.94 334.98 708.99 334.81 709.16 334.76 709.38 334.81 709.6 334.98 709.78 335.2 709.82 335.42 709.78 335.6 709.6 335.64 709.38"/><polygon class="cls-5" points="327.77 709.38 327.73 709.16 327.55 708.99 327.33 708.94 327.11 708.99 326.94 709.16 326.85 709.38 326.94 709.6 327.11 709.78 327.33 709.82 327.55 709.78 327.73 709.6 327.77 709.38"/><polyline class="cls-5" points="328.83 708.68 328.78 708.11 328.65 707.53 328.34 707.05"/><polyline class="cls-5" points="334.15 707.05 333.88 707.53 333.71 708.11 333.71 708.68"/><polyline class="cls-5" points="325.26 708.63 325.18 707.8 324.87 707.05"/><polyline class="cls-5" points="325.44 708.59 325.48 708.06 325.35 707.53 325.09 707.05"/><polyline class="cls-5" points="337.44 707.05 337.18 707.53 337.05 708.06 337.09 708.59"/><polyline class="cls-5" points="337.67 707.05 337.31 707.8 337.27 708.63"/><line class="cls-5" x1="337.88" y1="708.68" x2="338.28" y2="708.32"/><line class="cls-5" x1="337.88" y1="708.9" x2="338.32" y2="708.5"/><line class="cls-5" x1="337.84" y1="710.08" x2="338.41" y2="709.25"/><line class="cls-5" x1="324.6" y1="708.68" x2="324.25" y2="708.32"/><line class="cls-5" x1="324.6" y1="708.9" x2="324.21" y2="708.5"/><line class="cls-5" x1="324.69" y1="710.08" x2="324.12" y2="709.25"/><polyline class="cls-5" points="337.44 710.08 337.53 709.21 337.53 708.99 337.49 708.85 337.4 708.77 337.31 708.68 337.14 708.59 336.39 708.59 335.6 708.63 334.89 708.63 334.28 708.68 333.71 708.68"/><path class="cls-5" d="M333.71,708.59h-.53a23,23,0,0,0-3.87,0h-.48"/><polyline class="cls-5" points="328.83 708.68 328.12 708.68 326.98 708.63 326.1 708.63 325.57 708.59 325.39 708.59 325.22 708.63 325.04 708.9 325 709.07 325 709.29 325.04 709.78 325.09 710.09"/><line class="cls-5" x1="327.99" y1="708.68" x2="327.99" y2="709.56"/><line class="cls-5" x1="328.21" y1="708.68" x2="328.21" y2="710.09"/><line class="cls-5" x1="328.47" y1="708.68" x2="328.47" y2="710.09"/><line class="cls-5" x1="328.69" y1="708.68" x2="328.69" y2="710.09"/><line class="cls-5" x1="328.91" y1="708.68" x2="328.91" y2="710.09"/><line class="cls-5" x1="329.18" y1="708.68" x2="329.18" y2="710.09"/><line class="cls-5" x1="329.4" y1="708.68" x2="329.4" y2="710.09"/><line class="cls-5" x1="329.62" y1="708.68" x2="329.62" y2="710.09"/><line class="cls-5" x1="329.88" y1="708.68" x2="329.88" y2="710.09"/><line class="cls-5" x1="330.1" y1="708.68" x2="330.1" y2="710.09"/><line class="cls-5" x1="330.32" y1="708.68" x2="330.32" y2="710.09"/><line class="cls-5" x1="330.54" y1="708.68" x2="330.54" y2="710.09"/><line class="cls-5" x1="330.81" y1="708.68" x2="330.81" y2="710.09"/><line class="cls-5" x1="331.02" y1="708.68" x2="331.02" y2="710.09"/><line class="cls-5" x1="331.24" y1="708.68" x2="331.24" y2="710.09"/><line class="cls-5" x1="331.51" y1="708.68" x2="331.51" y2="710.09"/><line class="cls-5" x1="331.73" y1="708.68" x2="331.73" y2="710.09"/><line class="cls-5" x1="331.95" y1="708.68" x2="331.95" y2="710.09"/><line class="cls-5" x1="332.17" y1="708.68" x2="332.21" y2="710.09"/><line class="cls-5" x1="332.43" y1="708.68" x2="332.43" y2="710.09"/><line class="cls-5" x1="332.65" y1="708.68" x2="332.65" y2="710.09"/><line class="cls-5" x1="332.87" y1="708.68" x2="332.87" y2="710.09"/><line class="cls-5" x1="333.14" y1="708.68" x2="333.14" y2="710.09"/><line class="cls-5" x1="333.36" y1="708.68" x2="333.36" y2="710.09"/><line class="cls-5" x1="333.58" y1="708.68" x2="333.58" y2="710.09"/><line class="cls-5" x1="333.84" y1="708.68" x2="333.84" y2="710.09"/><line class="cls-5" x1="334.06" y1="708.68" x2="334.06" y2="710.09"/><line class="cls-5" x1="334.28" y1="708.68" x2="334.28" y2="710.09"/><line class="cls-5" x1="334.5" y1="708.68" x2="334.5" y2="709.56"/><polyline class="cls-5" points="328.83 708.68 329.22 709.73 329.27 709.78 329.27 709.82 329.35 709.82 329.35 709.87 329.4 709.87 331.25 710.09 333.09 709.87 333.14 709.87 333.18 709.82 333.22 709.82 333.27 709.78 333.27 709.73 333.31 709.73 333.71 708.68"/><line class="cls-5" x1="336.48" y1="711.71" x2="336.48" y2="712.86"/><line class="cls-5" x1="326.01" y1="711.71" x2="326.01" y2="712.86"/><path class="cls-5" d="M338.15,714.26v-3.47l0-.18.13-.44a3.79,3.79,0,0,0-.62-3.08l-.18-.31L336.3,704l-.13-.31-.13-.17-.18-.13-.26,0-.44,0-1,0-1.54-.09h-2.24l-.92,0-1,0-.79,0h-.44l-.53.09-.22.13-.17.22-.22.44-1.19,2.77,0,.13-.17.27-.13.22a3.87,3.87,0,0,0-.26,3l.09.13v3.56H326v-1.41h10.47v1.41Z"/><rect class="cls-5" x="290.88" y="710.57" width="1.28" height="0.53"/><rect class="cls-5" x="295.19" y="710.52" width="2.64" height="0.49"/><rect class="cls-5" x="300.9" y="710.57" width="1.23" height="0.53"/><line class="cls-5" x1="303.36" y1="710.79" x2="302.13" y2="710.79"/><line class="cls-5" x1="300.9" y1="710.79" x2="297.82" y2="710.79"/><line class="cls-5" x1="295.18" y1="710.79" x2="292.15" y2="710.79"/><polyline class="cls-5" points="290.88 710.79 289.64 710.79 290.35 711.71 302.66 711.71 303.36 710.79"/><polygon class="cls-5" points="302.62 706.83 290.39 706.83 291.58 704.19 291.71 703.97 291.89 703.84 292.15 703.8 292.77 703.75 295.49 703.62 296.2 703.58 297.12 703.62 297.65 703.62 298.66 703.66 300.33 703.75 300.77 703.75 300.99 703.8 301.17 703.88 301.3 703.97 301.43 704.15 301.52 704.33 302.62 706.83"/><line class="cls-5" x1="302.92" y1="707.05" x2="290.08" y2="707.05"/><polyline class="cls-5" points="292.19 706.83 292.42 705.64 294.52 705.64 294.75 706.83"/><polyline class="cls-5" points="298.26 706.83 298.48 705.64 300.59 705.64 300.81 706.83"/><line class="cls-5" x1="296.5" y1="703.58" x2="296.5" y2="703.8"/><polygon class="cls-5" points="297.12 703.8 295.85 703.8 295.8 703.84 295.76 703.84 295.71 703.88 295.71 704.41 295.76 704.45 295.8 704.5 297.21 704.5 297.25 704.45 297.3 704.41 297.3 704.37 297.34 704.32 297.34 703.97 297.3 703.93 297.3 703.88 297.25 703.84 297.21 703.8 297.12 703.8"/><line class="cls-5" x1="303.63" y1="710.08" x2="289.42" y2="710.08"/><polygon class="cls-5" points="301.03 708.94 302.44 708.9 302.44 709.87 301.03 709.87 301.03 708.94"/><rect class="cls-5" x="290.57" y="708.94" width="1.41" height="0.92"/><line class="cls-5" x1="299.98" y1="708.68" x2="299.67" y2="710.09"/><line class="cls-5" x1="293.07" y1="708.68" x2="293.38" y2="710.09"/><polygon class="cls-5" points="300.9 709.38 300.86 709.16 300.68 708.99 300.46 708.94 300.24 708.99 300.07 709.16 299.98 709.38 300.07 709.6 300.24 709.78 300.46 709.82 300.68 709.78 300.86 709.6 300.9 709.38"/><polygon class="cls-5" points="293.03 709.38 292.94 709.16 292.81 708.99 292.55 708.94 292.33 708.99 292.19 709.16 292.11 709.38 292.19 709.6 292.33 709.78 292.55 709.82 292.81 709.78 292.94 709.6 293.03 709.38"/><polyline class="cls-5" points="294.04 708.68 294.04 708.11 293.91 707.53 293.6 707.05"/><polyline class="cls-5" points="299.41 707.05 299.14 707.53 298.97 708.11 298.97 708.68"/><polyline class="cls-5" points="290.52 708.63 290.43 707.8 290.08 707.05"/><polyline class="cls-5" points="290.7 708.59 290.74 708.06 290.61 707.53 290.35 707.05"/><polyline class="cls-5" points="302.66 707.05 302.4 707.53 302.31 708.06 302.31 708.59"/><polyline class="cls-5" points="302.92 707.05 302.57 707.8 302.49 708.63"/><line class="cls-5" x1="303.14" y1="708.68" x2="303.5" y2="708.32"/><line class="cls-5" x1="303.14" y1="708.9" x2="303.58" y2="708.5"/><line class="cls-5" x1="303.06" y1="710.08" x2="303.67" y2="709.25"/><line class="cls-5" x1="289.86" y1="708.68" x2="289.51" y2="708.32"/><line class="cls-5" x1="289.86" y1="708.94" x2="289.47" y2="708.5"/><line class="cls-5" x1="289.95" y1="710.08" x2="289.38" y2="709.25"/><polyline class="cls-5" points="302.66 710.08 302.75 709.21 302.79 708.99 302.75 708.9 302.66 708.77 302.57 708.68 302.4 708.59 302.18 708.59 301.65 708.63 300.86 708.63 300.15 708.68 298.97 708.68"/><path class="cls-5" d="M299,708.59h-.53a27.24,27.24,0,0,0-3.87,0H294"/><polyline class="cls-5" points="294.04 708.68 293.34 708.68 292.24 708.63 291.31 708.63 290.83 708.59 290.65 708.59 290.48 708.68 290.35 708.77 290.26 708.9 290.21 709.07 290.26 709.34 290.3 709.78 290.35 710.09"/><line class="cls-5" x1="293.25" y1="708.68" x2="293.25" y2="709.56"/><line class="cls-5" x1="293.47" y1="708.68" x2="293.47" y2="710.09"/><line class="cls-5" x1="293.73" y1="708.68" x2="293.73" y2="710.09"/><line class="cls-5" x1="293.95" y1="708.68" x2="293.95" y2="710.09"/><line class="cls-5" x1="294.17" y1="708.68" x2="294.17" y2="710.09"/><line class="cls-5" x1="294.39" y1="708.68" x2="294.39" y2="710.09"/><line class="cls-5" x1="294.66" y1="708.68" x2="294.66" y2="710.09"/><line class="cls-5" x1="294.88" y1="708.68" x2="294.88" y2="710.09"/><line class="cls-5" x1="295.1" y1="708.68" x2="295.1" y2="710.09"/><line class="cls-5" x1="295.36" y1="708.68" x2="295.36" y2="710.09"/><line class="cls-5" x1="295.58" y1="708.68" x2="295.58" y2="710.09"/><line class="cls-5" x1="295.8" y1="708.68" x2="295.8" y2="710.09"/><line class="cls-5" x1="296.06" y1="708.68" x2="296.06" y2="710.09"/><line class="cls-5" x1="296.28" y1="708.68" x2="296.28" y2="710.09"/><line class="cls-5" x1="296.5" y1="708.68" x2="296.5" y2="710.09"/><line class="cls-5" x1="296.72" y1="708.68" x2="296.72" y2="710.09"/><line class="cls-5" x1="296.99" y1="708.68" x2="296.99" y2="710.09"/><line class="cls-5" x1="297.21" y1="708.68" x2="297.21" y2="710.09"/><line class="cls-5" x1="297.43" y1="708.68" x2="297.43" y2="710.09"/><line class="cls-5" x1="297.69" y1="708.68" x2="297.69" y2="710.09"/><line class="cls-5" x1="297.91" y1="708.68" x2="297.91" y2="710.09"/><line class="cls-5" x1="298.13" y1="708.68" x2="298.13" y2="710.09"/><line class="cls-5" x1="298.35" y1="708.68" x2="298.35" y2="710.09"/><line class="cls-5" x1="298.62" y1="708.68" x2="298.62" y2="710.09"/><line class="cls-5" x1="298.84" y1="708.68" x2="298.84" y2="710.09"/><line class="cls-5" x1="299.06" y1="708.68" x2="299.06" y2="710.09"/><line class="cls-5" x1="299.32" y1="708.68" x2="299.32" y2="710.09"/><line class="cls-5" x1="299.54" y1="708.68" x2="299.54" y2="710.09"/><line class="cls-5" x1="299.76" y1="708.68" x2="299.76" y2="709.56"/><polyline class="cls-5" points="294.04 708.68 294.48 709.73 294.48 709.78 294.53 709.78 294.53 709.82 294.57 709.82 294.61 709.87 294.66 709.87 296.5 710.09 298.35 709.87 298.44 709.87 298.44 709.82 298.48 709.82 298.48 709.78 298.53 709.78 298.53 709.73 298.97 708.68"/><line class="cls-5" x1="301.74" y1="711.71" x2="301.74" y2="712.9"/><line class="cls-5" x1="291.27" y1="711.71" x2="291.27" y2="712.9"/><path class="cls-5" d="M303.36,714.26v-3.47l.09-.18.13-.44a3.73,3.73,0,0,0-.66-3.08l-.13-.26L301.56,704l-.13-.31-.13-.17-.18-.13-.26,0-.44,0-1,0-1.5,0-1.23,0h-1l-.92,0-1,0-.83,0-.44,0h-.22l-.26,0-.26.13-.13.22-.22.48-1.19,2.73-.09.13-.13.27-.18.26a3.69,3.69,0,0,0-.22,3l0,.13,0,.09v3.47h1.63V712.9h10.47v1.36Z"/><path class="cls-1" d="M211.65,165.6s-.74.05-.76.08a14,14,0,0,0,.07,2.21,8.58,8.58,0,0,0,1.08,0h.17a.32.32,0,0,1,0,.16s.07,1.72,0,2-.34,1.66-.31,1.73.1.09.11.15,0,.22,0,.22a.2.2,0,0,0,.16.17l.32,0h.08a.49.49,0,0,1,.23-.07h.77s.2,0,.2-.17-.37-.18-.45-.34a9,9,0,0,1,.24-1.6.67.67,0,0,1,.12-.25s0,0,0,.1.54,1.76.54,1.9,0,.14,0,.14.13,0,.13.07l.05.13a.17.17,0,0,0,.19.13h.11a.56.56,0,0,0,.22,0,.24.24,0,0,1,.16,0l.23,0H216l.28,0s.08,0,0-.16-.42-.26-.63-.33l-.21-.07c0-.07,0-.07.05,0s0,0,0-.22v-.23c0,.06,0,.05,0,0a38.83,38.83,0,0,1-.75-4.6l.15-.23a1,1,0,0,0,0-.11l-.19-1.18c0-.08,0-.1.08,0s.34.31.55.31a1.06,1.06,0,0,0,.54-.12c0-.06-.14-.22.15-.17s.82-.51.82-.51a.73.73,0,0,0,.14-.2v.29c0,.29-.2,1.87,0,1.9s.24-.11.25.32-.15-.18,0,.62a10.11,10.11,0,0,1,.33,1.62c0,.32.21,2.09.21,2.38s0,.24-.28.36-.55.23-.42.29a2.87,2.87,0,0,0,.7,0,.73.73,0,0,0,.27-.08.67.67,0,0,1,.25,0c.21,0,.56,0,.54-.14s0-.1,0-.1a.1.1,0,0,0,.12-.12,10.41,10.41,0,0,1-.11-1.21c.05,0,.09.12.15.29s.32.89.32.89.06.07.08,0,0-.13,0,.24,0,.43.35.43a.47.47,0,0,0,.52-.57l0-.31c0,.07.05.06.05,0a2.12,2.12,0,0,0-.08-.52c-.09-.33-.45-2-.45-2.17s0-.12,0-.12a.2.2,0,0,0,.2.12l.9-.1a.16.16,0,0,0,.14-.16l0-2a.15.15,0,0,0-.15-.15l-.69,0a.18.18,0,0,1-.17-.15s-.12-.72-.12-.94.44-.7.53-1.25a4.62,4.62,0,0,0-.4-1.91c-.11-.19-.41-.29-.54-.36s-.31-.09-.25-.46.16-.05.23-.24a1.24,1.24,0,0,0-.24-1.21,1.3,1.3,0,0,0-1.14-.14c-.16,0-.44.12-.26.37a.44.44,0,0,1,0,.47s-.12,0-.05.34-.09.48.12.54.46.14.36.24-.68.22-.89.44-.11.2-.16.32a3.08,3.08,0,0,1-1.23,1.77c-.38.24-.33.23-.33.23s.11,0,.08.09a.19.19,0,0,1-.32,0c-.2-.2-.68-.88-.84-1.07s0-.86-.14-1.25a1.2,1.2,0,0,0-.75-.76c-.18,0,0-.16,0-.26s.42,0,.46-.12,0-.27.16-.34,0-.29.11-.5a.71.71,0,0,1,.2-.33c.08-.08-.13-.29-.23-.4s-1.34-.69-1.57.34.11.9,0,1.05-.13.32-.57.49-.65.27-.86,1.51A5.83,5.83,0,0,0,211.65,165.6Z"/><path class="cls-1" d="M68,369.22s-.74.05-.76.08a13.85,13.85,0,0,0,.07,2.21,8.58,8.58,0,0,0,1.09,0h.17a.32.32,0,0,1,0,.16s.08,1.72,0,2-.34,1.66-.31,1.73.1.08.1.15l0,.22a.2.2,0,0,0,.16.17l.32,0H69a.5.5,0,0,1,.23-.07H70s.2,0,.2-.17-.37-.18-.45-.34a9,9,0,0,1,.24-1.6.67.67,0,0,1,.12-.25s0,0,0,.1.54,1.76.54,1.9,0,.14,0,.14.13,0,.13.07l.05.13A.17.17,0,0,0,71,376h.11a.55.55,0,0,0,.22,0,.23.23,0,0,1,.16,0l.23,0h.61l.28,0s.08,0,0-.16-.42-.26-.63-.33l-.2-.07c0-.07,0-.07.05,0s0,0,0-.22V375c0,.06,0,.05,0,0a38.84,38.84,0,0,1-.75-4.6l.15-.23a.78.78,0,0,0,0-.11l-.19-1.18c0-.08,0-.1.08,0s.34.31.54.31a1.07,1.07,0,0,0,.54-.12c0-.06-.14-.22.15-.17s.83-.51.83-.51a.77.77,0,0,0,.14-.2v.29c0,.29-.2,1.87,0,1.9s.24-.11.25.32-.15-.18,0,.62a10.11,10.11,0,0,1,.33,1.62c0,.32.21,2.09.21,2.38s0,.24-.28.36-.55.23-.42.29a2.9,2.9,0,0,0,.7,0,.75.75,0,0,0,.27-.08.65.65,0,0,1,.25,0c.21,0,.56,0,.55-.14s0-.1,0-.1a.1.1,0,0,0,.12-.12,10.2,10.2,0,0,1-.11-1.21c.05,0,.09.12.15.29s.32.89.32.89.06.07.08,0,0-.13,0,.24,0,.43.35.43a.47.47,0,0,0,.52-.57l0-.31c0,.07.05.06.05,0a2.1,2.1,0,0,0-.08-.52c-.08-.33-.45-2-.45-2.17s0-.12,0-.12a.21.21,0,0,0,.2.12l.9-.1a.16.16,0,0,0,.14-.16l0-2a.15.15,0,0,0-.14-.15l-.69,0a.18.18,0,0,1-.17-.15s-.12-.72-.12-.94.44-.7.53-1.25a4.61,4.61,0,0,0-.41-1.91c-.11-.19-.4-.29-.54-.36s-.31-.09-.25-.46.16-.05.23-.24a1.24,1.24,0,0,0-.24-1.21,1.3,1.3,0,0,0-1.14-.14c-.16,0-.44.12-.26.37a.44.44,0,0,1,0,.47s-.12,0-.05.34-.09.48.12.54.46.14.36.24-.68.22-.89.44-.11.2-.16.32A3.07,3.07,0,0,1,72.44,368c-.38.24-.33.23-.33.23s.11,0,.07.09a.19.19,0,0,1-.32,0c-.2-.2-.68-.88-.84-1.07s0-.86-.14-1.25a1.2,1.2,0,0,0-.75-.76c-.18,0,0-.16,0-.26s.42,0,.46-.12,0-.27.16-.34,0-.29.11-.5a.72.72,0,0,1,.2-.33c.08-.08-.13-.29-.23-.4s-1.34-.69-1.58.34.11.9,0,1.05-.13.32-.56.49-.65.27-.86,1.51A5.81,5.81,0,0,0,68,369.22Z"/><path class="cls-1" d="M72.23,225s-.79,2.7-.92,3.06-.46,1.92-.46,1.92l-.11.16,0,.14s0,.58-.52.58-.5-.36-.26-.63l.25-.27-.09-.17s.33-2.39.55-3.57a13.73,13.73,0,0,0,.51-3c0-1.24,0-1.8,0-1.8s-.53,1.1-.43,1.31-.12.9-.12,1.07.11.67-.08.69-.5,0-.5-.28a3.88,3.88,0,0,1,.06-.6l0,0s.09-1.31.13-1.52.65-2.32.7-2.47.05-.34.34-.44a7.75,7.75,0,0,1,.89-.21c.16,0,.57-.19.49-.49s-.33-.49-.27-1,.37-.53.84-.52.69.28.62.58-.15.88-.37.91-.29.49.08.73.75.59.76.86a17.28,17.28,0,0,0,0,2.38,9.21,9.21,0,0,1,.17,1.36c.08.33.49.59,0,.62s-.55.1-.55-.1-.16-1.12-.19-1.28-.06.17-.06.25.13,1.09.16,1.46a14.81,14.81,0,0,1,.12,2.43c-.09.64-.2,2.77-.2,2.87s.36.1.54.28.41.61,0,.52-1-.05-1.17-.25a.47.47,0,0,1-.11-.47c0-.1,0-.06-.09-.11s-.11,0-.11-.49a15,15,0,0,0-.11-2.85L72.42,225S72.3,224.71,72.23,225Z"/><path class="cls-1" d="M293.27,229.73h.31s0-.81,0-1.07.16-.31.23-.77a7.09,7.09,0,0,0,0-1.21c0-.29,0-.51,0-.51a.39.39,0,0,1,.21-.07c.16,0,.17-.5.22-.78a8.57,8.57,0,0,0-.06-2.25c-.15-1.09-.05-.85-.05-.85a3.8,3.8,0,0,0,.28-1.19c0-.34.74.95.74,1.15a5.84,5.84,0,0,1-.4,1.48c-.12.12-.37.58-.11.58a.42.42,0,0,0,.44-.39c0-.22,0,.06.1-.29s.51-1,.55-1.19.08-.26,0-.45-1-2-1.08-2.11a.86.86,0,0,0-.55-.39.55.55,0,0,1-.43-.38,1.08,1.08,0,0,0-.07-.2.46.46,0,0,0,.21-.4c0-.29.27-1.09-.45-1.07s-.75.56-.54,1.12.28.34.28.49,0,.14-.17.28-.92.24-.93.88a6.88,6.88,0,0,1-.2,2.36c-.26.36-.42,1-.68,1.17s-.31.43-.11.48.46,0,.49-.23-.16-.33.14-.42.23-.13.34-.27.25-.19.25,0a15.22,15.22,0,0,0,0,2.13,7,7,0,0,1,.06,1.27c0,.16,0-.07.1.51a15.36,15.36,0,0,1,.52,3c-.11.44,0,.78.13.8a.32.32,0,0,0,.32-.28,3,3,0,0,0,0-.7Z"/><path class="cls-1" d="M119.55,424.19c-.12.12,0,1.48-.11,1.55s-.12-.07-.12.07,0,.09,0,.64a6.51,6.51,0,0,1-.21,1.91c-.15.38-.13.15,0,1.05s.07,1.07.14,1.43.19.3.33.87.66,1.12.58,1.29.19.19.19.19.55.41,0,.63a2.51,2.51,0,0,0-.32.08s0,.13,0,.13h-.82l0-.66a.62.62,0,0,1-.08-.26c0-.2,0-.25-.07-.34s-.8-1.9-.8-1.9.1-.22-.1,0-.35.81-.51,1a4.75,4.75,0,0,0-.5.9c0,.13-.12.1-.12.37s-.11.39,0,.48.59.08.69.22a.78.78,0,0,1,.09.37,3.43,3.43,0,0,1-1.11.11c-.3-.09-.36-.23-.53-.23a1.93,1.93,0,0,1-.6-.09c-.14-.06-.27-.17-.28-.22a3.84,3.84,0,0,1,.33-.56s0-.16.15-.4a4.93,4.93,0,0,1,.33-.74c.31-.61.82-2.38,1-2.59s.36-.39.36-.58.07,0-.05-.3a4.72,4.72,0,0,1-.65-1.75,9.89,9.89,0,0,1,.09-1.34c0-.07-.31-.07-.36-.15s0-.24-.1-.38-.25-.24-.42-.43.17-.86.36-1.36.3-1.17.9-1.5.74-.24.74-.47,0-.51,0-.51-.13,0-.05-.43,0-.79.89-.79a1.41,1.41,0,0,1,.67.12.14.14,0,0,1,.11.16,4.28,4.28,0,0,0,0,.55.91.91,0,0,0,0,.24c0,.3.06.4,0,.46s-.08-.05-.13.2a.65.65,0,0,1-.32.44c-.06,0-.12.12,0,.12a.87.87,0,0,1,.62.59,3,3,0,0,0,.53,1.07c.29.32.77.82.87,1a4.47,4.47,0,0,0,.73.7c.3.24.62.25.62.51s0,.67-.24.62,0-.2,0-.26,0-.12-.19-.12a2.57,2.57,0,0,1-.8-.25,13.15,13.15,0,0,1-1.43-1.22C119.62,424.18,119.62,424.13,119.55,424.19Z"/><path class="cls-1" d="M321.26,365.9c-.11.12,0,1.48-.11,1.55s-.12-.07-.12.07,0,.09,0,.64a6.5,6.5,0,0,1-.21,1.91c-.15.38-.13.15,0,1.05s.07,1.07.14,1.43.19.3.32.87.66,1.12.58,1.29.19.19.19.19.55.41,0,.63a2.51,2.51,0,0,0-.32.08s0,.13,0,.13H321l0-.66a.61.61,0,0,1-.08-.26c0-.2,0-.25-.07-.34s-.8-1.9-.8-1.9.1-.22-.1,0-.35.81-.51,1a4.8,4.8,0,0,0-.5.9c0,.13-.12.1-.12.37s-.11.39,0,.48.59.08.69.22a.79.79,0,0,1,.09.38,3.43,3.43,0,0,1-1.11.11c-.3-.09-.36-.23-.53-.23a1.93,1.93,0,0,1-.6-.09c-.14-.06-.27-.17-.28-.22a3.75,3.75,0,0,1,.33-.56s0-.16.15-.4a4.71,4.71,0,0,1,.33-.74c.31-.61.82-2.38,1-2.59s.36-.39.36-.58.07,0-.05-.3a4.74,4.74,0,0,1-.65-1.75,9.82,9.82,0,0,1,.09-1.34c0-.07-.31-.07-.36-.15s0-.24-.1-.38-.25-.24-.42-.43.17-.86.36-1.36.3-1.17.9-1.5.74-.24.74-.47,0-.51,0-.51-.13,0-.05-.43,0-.79.89-.79a1.41,1.41,0,0,1,.67.12.14.14,0,0,1,.11.16,4.28,4.28,0,0,0,0,.55,1,1,0,0,0,0,.24c0,.3.06.4,0,.46s-.07-.05-.13.2a.64.64,0,0,1-.32.44c-.06,0-.12.12,0,.12a.87.87,0,0,1,.62.59,3,3,0,0,0,.53,1.07c.29.32.77.82.87,1a4.51,4.51,0,0,0,.73.7c.3.24.62.25.62.51s0,.67-.24.62,0-.2,0-.26,0-.12-.19-.12a2.57,2.57,0,0,1-.8-.25,13.14,13.14,0,0,1-1.43-1.22C321.33,365.89,321.33,365.84,321.26,365.9Z"/><path class="cls-1" d="M195.15,279.58c.11.11,0,1.39.1,1.46s.11-.07.11.07,0,.08,0,.61a6.09,6.09,0,0,0,.19,1.79c.14.36.13.14,0,1s-.07,1-.13,1.35-.18.28-.31.81-.62,1-.55,1.21-.18.18-.18.18-.51.39,0,.59a2.35,2.35,0,0,1,.31.08s0,.13,0,.13h.77l0-.62a.58.58,0,0,0,.08-.24c0-.19,0-.24.07-.32s.75-1.79.75-1.79-.1-.21.09,0,.33.76.48.93a4.55,4.55,0,0,1,.47.84c0,.12.11.09.11.34s.11.37,0,.45-.56.08-.65.2a.74.74,0,0,0-.09.35,3.21,3.21,0,0,0,1,.11c.28-.08.34-.21.5-.21a1.82,1.82,0,0,0,.57-.09c.13-.06.26-.16.26-.21a3.54,3.54,0,0,0-.31-.52s0-.15-.14-.37a4.59,4.59,0,0,0-.31-.7c-.29-.58-.77-2.24-.92-2.43s-.34-.37-.34-.55-.06,0,0-.28a4.44,4.44,0,0,0,.61-1.65,9.22,9.22,0,0,0-.08-1.25c0-.07.29-.07.34-.14s0-.23.09-.35.23-.22.39-.41-.16-.8-.33-1.28-.28-1.1-.85-1.41-.7-.23-.7-.44,0-.48,0-.48.13,0,.05-.4,0-.75-.84-.75a1.31,1.31,0,0,0-.63.11.13.13,0,0,0-.11.15,4.14,4.14,0,0,1,0,.52.9.9,0,0,1,0,.22c0,.28-.06.38,0,.43s.07,0,.12.19a.61.61,0,0,0,.3.41c.06,0,.11.11,0,.11a.82.82,0,0,0-.58.56,2.75,2.75,0,0,1-.5,1c-.27.3-.72.77-.82.92a4.29,4.29,0,0,1-.69.66c-.28.23-.59.23-.59.48s0,.63.23.58,0-.19,0-.24,0-.12.18-.12a2.41,2.41,0,0,0,.75-.23,12.31,12.31,0,0,0,1.35-1.14C195.08,279.57,195.09,279.52,195.15,279.58Z"/><path class="cls-1" d="M256.77,339.92a1.59,1.59,0,0,0-.07.34.6.6,0,0,0,.1.44s0,.08.08.1.14.09.11-.07-.15-.38,0-.5,0-.24.11-.19.23,0,.25-.21-.09-.24-.11-.32a2,2,0,0,1,.11-.94c.15-.42,0-.43.05-.63a.68.68,0,0,1,.23-.32h.08s0-.17,0-.25.09,0,.09.1a9.79,9.79,0,0,1,.11,1.19c0,.16,0,.17,0,.3s0,.78,0,1.3a19.18,19.18,0,0,0,.18,2.21c.08.21,0,.05,0,.55a6.43,6.43,0,0,0,.12,1.73,3.81,3.81,0,0,1,.09,1.13c0,.09.21.11.21.11s0,0,0,.24,0,.75.42.73.33-.62.33-.75a1.52,1.52,0,0,0-.06-.33l.18,0s0-.14,0-.19.12,0,.14-.24a2.66,2.66,0,0,0-.06-1.11c-.12-.12,0-.06.06-.15a8,8,0,0,1,.77-1.24c.18-.14.32,0,.32-.42a17.7,17.7,0,0,0-.11-2.56,4,4,0,0,1-.12-1s.39.48.39.62a4.43,4.43,0,0,0,.14.53c0,.05-.14.16-.07.23l.14.14s.21.14.23.07.27-.2.13-.5a6.82,6.82,0,0,1-.51-1.52c-.05-.44-.29-.67-.31-.85s0-.89,0-1.17.17-.7-.23-1-.64-.37-.78-.32-.17-.11-.14-.24a3.26,3.26,0,0,0,.1-.73c0-.3,0-.31,0-.44a.79.79,0,0,0-.88-.75c-.52,0-.61.25-.61.33a.77.77,0,0,1,0,.28,1.24,1.24,0,0,0,0,.37c0,.15-.08.49,0,.49a.23.23,0,0,1,.25.23.55.55,0,0,0,.07.27.21.21,0,0,0-.11.1c0,.07.14.09-.07.16s-.87.09-1,.76a8.16,8.16,0,0,1-.19.93,2.77,2.77,0,0,0,0,.54c0,.07,0,.07,0,.07s-.07,0-.14.37a5.43,5.43,0,0,0,0,1.15A4.34,4.34,0,0,1,256.77,339.92Z"/><path class="cls-1" d="M91.81,338.85a3.68,3.68,0,0,0-.51-.25c-.27-.14,0,0-.14-.12s-.5-.13-.74-.37a5.77,5.77,0,0,1-.85-.93,4.07,4.07,0,0,0-.14-1.18A11.34,11.34,0,0,1,89,335c0-.17.18,0,.28-.1s.12-.22.2-.3.13,0,.22-.07,0-.34,0-.42.22-.22.22-.38.32-.84-.8-1a1.53,1.53,0,0,0-1.68,1.15,4.94,4.94,0,0,1,0,.54c0,.25-.12.15-.24.2s0,.21,0,.21a2,2,0,0,1-.29.55c-.17.2-.81.81-1,1s-1.16,1.81-1.51,2.16.15.45.15.45,1.42.76,1.51.85.07.15.07.15.17-.21.17,0,.37.73.42.95a10.49,10.49,0,0,1,0,1.29c0,.07-.2.38-.2.57s-.34.3-.68.6-.42.42-.62.62-1.31,1.56-1.42,1.63a.23.23,0,0,0-.09.23,1,1,0,0,0,.07.2l-.18.17.08.08.15-.15a.2.2,0,0,1,.21,0c0,.05,0,.24,0,.29a.83.83,0,0,0,.13.3,1.58,1.58,0,0,0,.58.43.52.52,0,0,0,.61-.07c0-.07-.46-.17-.59-.61s.17-.46.44-.85a19.22,19.22,0,0,1,1.54-1.59c.22-.22.57-.33.74-.72s.58-1.26.58-1.26.27.27.37.49a2.91,2.91,0,0,1,.29.65,6.39,6.39,0,0,1,.1,1.17,3.13,3.13,0,0,0,.19.77c.07.33.22,1.59.28,1.77s.25,0,.25,0l0,.13.13,0,0-.2a6,6,0,0,1,.7.15,1.26,1.26,0,0,0,1.18-.37c0-.1-.71-.07-.85-.22s-.34-.2-.34-.42-.69-2.17-.69-2.66a7,7,0,0,0-.6-2.37c-.34-.66-.12-.78-.12-.78a.2.2,0,0,0,.12-.17c0-.12,0-.29,0-.7a6.76,6.76,0,0,1,.06-1.11.71.71,0,0,1,.33.22,3.94,3.94,0,0,0,.78.52c.13.07,1,.43,1.24.55s.23.08.69.07S92,339,91.81,338.85Zm-5.12-3.08-.19,1.17a.63.63,0,0,1-.27-.15.4.4,0,0,1-.09-.43c.07-.12.47-.64.55-.61Z"/><path class="cls-1" d="M207.56,452.34c-.22-1.25-.28-1.5-.31-1.6s0-.38-.6-.55l-.92-.28a.25.25,0,0,1,0-.24,2.17,2.17,0,0,0,.3-.86c0-.43.07-1-.83-1s-.71.75-.71,1.07.31.58.31.79,0,.32,0,.32-1.2.15-1.31.49-.32,1.49-.49,2a9.48,9.48,0,0,0-.26,1.94,3.29,3.29,0,0,1,0,.48,1.15,1.15,0,0,0-.1.31.46.46,0,0,0,.43.46c.13,0,.27,0,.16-.15a.28.28,0,0,1-.07-.37.78.78,0,0,1,.38-.17,6.13,6.13,0,0,0-.33,1.13c.06.06.32.14.32.34a10.78,10.78,0,0,0,0,2.46,9.51,9.51,0,0,1,.55,2.35,5.33,5.33,0,0,1,0,1.21c0,.07-.9.56-.52.73s.61.14.75,0a.51.51,0,0,1,.18-.07s0,0,.29.11a2.7,2.7,0,0,0,1.12,0s-.16-.33-.09-.41.08-.38.08-.46.1.08.1-.05a9.42,9.42,0,0,1,.09-1.07c.07-.34.32-1.79.37-2.64s-.05-2.11.21-2.16a.51.51,0,0,0,.35-.21s.38-.25.38-.46a2.08,2.08,0,0,1,.13-.86A4.91,4.91,0,0,0,207.56,452.34Zm-2.5,8-.1,0a5.22,5.22,0,0,0-.12-1c-.11-.44-.19-.41-.17-.83a3.25,3.25,0,0,1,.13-.93,7.74,7.74,0,0,0,.16-1.26h.09s.06,1.37.07,1.67a4.42,4.42,0,0,0,0,.64A14.57,14.57,0,0,1,205.06,460.31Zm1.6-5.82h-.09a2.86,2.86,0,0,1-.19-.78c0-.29.15-.65.07-.79s.15-.67.15-.67h.1a3.42,3.42,0,0,1,0,.84A10.62,10.62,0,0,1,206.66,454.49Z"/><path class="cls-1" d="M71.39,569.53c-.12.12,0,1.48-.11,1.55s-.12-.07-.12.07,0,.09,0,.64A6.5,6.5,0,0,1,71,573.7c-.15.38-.13.15,0,1.05s.07,1.07.14,1.43.19.3.33.87.66,1.12.58,1.29.19.19.19.19.55.41,0,.63a2.51,2.51,0,0,0-.32.08s0,.13,0,.13h-.82l0-.66a.62.62,0,0,1-.08-.26c0-.2,0-.25-.07-.34s-.8-1.9-.8-1.9.1-.22-.1,0-.35.81-.51,1a4.75,4.75,0,0,0-.5.9c0,.13-.12.1-.12.37s-.11.39,0,.48.59.08.69.22a.78.78,0,0,1,.09.37,3.43,3.43,0,0,1-1.11.11c-.3-.09-.36-.23-.53-.23a1.93,1.93,0,0,1-.6-.09c-.14-.06-.27-.17-.28-.22a3.84,3.84,0,0,1,.33-.56s0-.16.15-.4a5,5,0,0,1,.33-.74c.31-.61.82-2.38,1-2.59s.36-.39.36-.58.07,0-.05-.3a4.72,4.72,0,0,1-.65-1.75,9.88,9.88,0,0,1,.09-1.34c0-.07-.31-.07-.36-.15s0-.24-.1-.38-.25-.24-.42-.43.17-.86.36-1.36.3-1.17.9-1.5.74-.24.74-.47,0-.51,0-.51-.13,0-.05-.43,0-.79.89-.79a1.41,1.41,0,0,1,.67.12.14.14,0,0,1,.11.16,4.27,4.27,0,0,0,0,.55.91.91,0,0,0,0,.24c0,.3.06.4,0,.46s-.08-.05-.13.2a.65.65,0,0,1-.32.44c-.06,0-.12.12,0,.12a.87.87,0,0,1,.62.59,3,3,0,0,0,.53,1.07c.29.32.77.82.87,1a4.48,4.48,0,0,0,.73.7c.3.24.62.25.62.51s0,.67-.24.62,0-.2,0-.26,0-.12-.19-.12a2.57,2.57,0,0,1-.8-.25,13.15,13.15,0,0,1-1.43-1.22C71.46,569.51,71.45,569.46,71.39,569.53Z"/><path class="cls-1" d="M289.62,75.24c-.12.12,0,1.48-.11,1.55s-.12-.07-.12.07,0,.09,0,.64a6.51,6.51,0,0,1-.21,1.91c-.15.38-.13.15,0,1.05s.07,1.07.14,1.43.19.3.33.87.66,1.12.58,1.29.19.19.19.19.55.41,0,.63a2.51,2.51,0,0,0-.32.08s0,.13,0,.13h-.82l0-.66a.62.62,0,0,1-.08-.26c0-.2,0-.25-.07-.34s-.8-1.9-.8-1.9.1-.22-.1,0-.35.81-.51,1a4.75,4.75,0,0,0-.5.9c0,.13-.12.1-.12.37s-.11.39,0,.48.59.08.69.22a.78.78,0,0,1,.09.37,3.43,3.43,0,0,1-1.11.11c-.3-.09-.36-.23-.53-.23a1.93,1.93,0,0,1-.6-.09c-.14-.06-.27-.17-.28-.22a3.84,3.84,0,0,1,.33-.56s0-.16.15-.4a4.93,4.93,0,0,1,.33-.74c.31-.61.82-2.38,1-2.59s.36-.39.36-.58.07,0-.05-.3a4.72,4.72,0,0,1-.65-1.75,9.89,9.89,0,0,1,.09-1.34c0-.07-.31-.07-.36-.15s0-.24-.1-.38-.25-.24-.42-.43.17-.86.36-1.36.3-1.17.9-1.5.74-.24.74-.47,0-.51,0-.51-.13,0-.05-.43,0-.79.89-.79a1.41,1.41,0,0,1,.67.12.14.14,0,0,1,.11.16,4.28,4.28,0,0,0,0,.55.91.91,0,0,0,0,.24c0,.3.06.4,0,.46s-.08-.05-.13.2a.65.65,0,0,1-.32.44c-.06,0-.12.12,0,.12a.87.87,0,0,1,.62.59,3,3,0,0,0,.53,1.07c.29.32.77.82.87,1a4.47,4.47,0,0,0,.73.7c.3.24.62.25.62.51s0,.67-.24.62,0-.2,0-.26,0-.12-.19-.12a2.57,2.57,0,0,1-.8-.25,13.13,13.13,0,0,1-1.43-1.22C289.68,75.23,289.68,75.17,289.62,75.24Z"/><path class="cls-1" d="M211.54,544.89s-.07.08-.28,0a2.84,2.84,0,0,1-.83-.81c-.13-.2,0-.38-.08-.54a.86.86,0,0,1,0-.33s.4-.48.61-.7.32,0,.32,0l.46-1.14a1.82,1.82,0,0,1,.7-.83l.05-.29.23,0v-.15a.71.71,0,0,0-.09-.12s0-.24.07-.42a1.12,1.12,0,0,1,.32-.46.92.92,0,0,1,.64,0c.21.05.19,0,.13,0s0,0,.16.1.15.05.1.1,0,.15.05.2a.58.58,0,0,1,0,.16c0,.05,0,.08-.07.13a1.33,1.33,0,0,1-.06.13s.09-.35-.05.23-.52.5-.52.5l-.06.34-.06,0h-.08s.06.28.11.48a5.42,5.42,0,0,1,0,1c0,.37,0,1.46,0,1.77s-.09.18-.09.3.06.29.08.61a11.62,11.62,0,0,0,.6,1.72c.13.36.34,1.35.43,1.78a4.84,4.84,0,0,0,.58,1.15s.1.09.35,0,.1,0,.16.11,0,.14,0,.14l-.19.1a2,2,0,0,1-.77.24c-.28,0-.28.06-.28.06h-.41c-.09,0-.08,0-.08-.06s0-.08-.08-.16a.26.26,0,0,1,0-.25s0-.06-.23-.59-.43-2.33-.63-2.53a.57.57,0,0,1-.19-.4,13.9,13.9,0,0,1-.61,1.26c-.1.1-.37.09-.38.23s-.76,1.76-.81,1.87a.28.28,0,0,0,0,.26c0,.11.49.05.49.14s0,.1,0,.13,0,.08,0,.08a8.12,8.12,0,0,1-1,0c-.16-.05-.11,0-.19-.08s-.22-.07-.29-.1a2.94,2.94,0,0,1-.38-.21c-.05,0,.06-.24.06-.24a1.12,1.12,0,0,0,.07-.25,16.21,16.21,0,0,0,1.18-1.79c0-.22.21-.33.38-.47a2.52,2.52,0,0,0,.39-.66,2.08,2.08,0,0,0,.07-.62C211.51,545.92,211.54,544.89,211.54,544.89Z"/><path class="cls-1" d="M211.6,541.93s-.28.62-.23.64.11.09.11.06S211.6,541.93,211.6,541.93Z"/><path class="cls-1" d="M282.94,483.32a4.86,4.86,0,0,0-.21,2.5c.3,1,.82,2.21.83,2.44s0,.19.07.56a5.59,5.59,0,0,0,.28,1.59c.23.57-.08.86-.08,1s.29,0,.2.13,0,.17-.13.33-.43.3-.34.4.63,0,.63,0a1.49,1.49,0,0,1,.4-.06c.22,0,.63,0,.63,0s.25-.19.2-.32a4.21,4.21,0,0,1,0-.69,3.29,3.29,0,0,0,0-1.95c-.34-1.43-.32-1.53-.13-2.14a5.55,5.55,0,0,0,.37-2.71c-.23-.91,0-.87,0-.87a11.17,11.17,0,0,0,.29-1.48,3,3,0,0,1,0-.88,1.65,1.65,0,0,0-.31-1.07c-.1-.06-.16-.13-.11-.18s-.48-.17-.58-.72-.27-1.74-1-1.78-1.14,1-1,1.54.17.74,0,.81-.19-.07-.42.19a1.73,1.73,0,0,0-.48.94,5,5,0,0,1-.2.94c-.05.3-.43.9,0,.93s.42-.12.42-.12.25,0,.17.56S282.94,483.4,282.94,483.32Z"/><path class="cls-1" d="M285.79,483.24s0,.16,0,.19-.09.17-.14.22-.19.06-.28-.09a1.26,1.26,0,0,1-.07-.56,2.38,2.38,0,0,1,.54-.77,3.65,3.65,0,0,0,.39-1.74,1.1,1.1,0,0,1,.77-1s.24-.14.21-.25-.27-.09-.32-.33-.08-.34-.08-.34-.11.11-.11,0a1.8,1.8,0,0,1,.12-.44s0-.46,0-.58a.55.55,0,0,1,.11-.28c.11-.11,1-.63,1.38-.25a6.73,6.73,0,0,1,.79,1.48c.29.51.56.3,1,1.17s0,.43.34,1.44a17.67,17.67,0,0,1,.68,2,3,3,0,0,0,.33.92,1.5,1.5,0,0,1-.14.87c-.11.23-.32.25-.22-.11a1.45,1.45,0,0,0,0-.69v.34c0,.2-.11.45-.11.11a1.87,1.87,0,0,0-.2-.87c-.13-.25-.22-.61-.38-.68s-.57.08-.61.08a2,2,0,0,1,.2,1,3.35,3.35,0,0,1-.29,1.86,11.74,11.74,0,0,0-.8,1.82c0,.22,0,.12.09.72s0,1,.33,1.1,1,.16.81.38-.15.22-.3.31,0,.41,0,.41.42.83,0,1.09-.64-.28-.64-.28l-.32.75-.23.16h-1.1a1,1,0,0,1,0-.54c.1-.26.36-.13.29-.48a4.57,4.57,0,0,1-.06-1.07c0-.54.2-.73.08-.92s-.78-.84-1-4.08a4,4,0,0,1,.08-1.44s0,.05,0,.05.18-1.33.18-1.63a6.46,6.46,0,0,0-.07-.78,4.92,4.92,0,0,1-.3.91C286.48,482.81,285.85,483.1,285.79,483.24Z"/><path class="cls-1" d="M111.5,518.7a12.88,12.88,0,0,0,.68,2.66,2.26,2.26,0,0,0,.93.06c.24,0,.52,0,.49-.29s-.72-.11-.34-.4c.15-.11-.42-1.29-.61-2.1a4.24,4.24,0,0,1-.19-1c0-.17-.09-1.07-.11-1.17s.24-1.08.31-1.51.32-1.48.36-1.66,0-.16,0-.28a.55.55,0,0,1,.05-.22,1.45,1.45,0,0,0-.35-.11c-.1,0-.13-.88-.13-1s.16.48.36.79.85,1.18.82,1.53a1.06,1.06,0,0,1-.12.48s.09-.06.08,0-.09.07.2,0,.41-.2.41-.32.17-.37,0-.51a13.21,13.21,0,0,1-.76-1.66c-.09-.23-.28-.58-.35-.76s-.25-1.21-.32-1.48-.56-.61-.93-.73a.56.56,0,0,1,0-.22c0-.13,0-.26,0-.26s.44.16.32-.61-.06-.39-.07-.5a1.74,1.74,0,0,0-.09-.48c-.06-.12-.28-.65-1.16-.15s-.1,1.32,0,1.46.17.32.08.41a8,8,0,0,0-.83.59,5.73,5.73,0,0,0-.8,1.74c-.1.6-.32,1.22.13,1.26a5.25,5.25,0,0,0,.62,0,3.07,3.07,0,0,1,0,1,1.69,1.69,0,0,0-.09.53s.17-.05.18.1a5.24,5.24,0,0,0,.33,1.05c.19.46.7,1.21.52,1.7s-.69,1.78-.79,2.14-.19,1.21-.22,1.32-.37.37-.21.53l.17.16a.53.53,0,0,1,.34.15c.12.14.12.27.21.3a4.57,4.57,0,0,0,.63,0s.38-.09.15-.32-.24-.16-.24-.32-.15-.23,0-.39.07-.62.09-.9A3.56,3.56,0,0,1,111.5,518.7Z"/><path class="cls-1" d="M81.5,142.28l0-.06s-.12-.18-.2-.27-.2,0-.24,0,0,0-.32-.14a1.08,1.08,0,0,1-.54-.68,4.14,4.14,0,0,0-.22-.48s.39,0,.4-.19a1.39,1.39,0,0,0-.18-.54,5.52,5.52,0,0,1-.53-1.1c-.09-.44-.13-.73-.24-1.08s-.27-.34.06-.4a3.63,3.63,0,0,0,1.25-.49,1,1,0,0,0,0-1c-.24-.49-.64-1.37-.88-1.47l0-.09a9.27,9.27,0,0,0-.6-1.32.9.9,0,0,0-.2-.18s-.46-.47-.49-.69a2.47,2.47,0,0,1-.06-.53c0-.2,0-.75-.67-.72s-.69.79-.69,1,.08.27,0,.36-.17.19-.08.28.14,0,.09.17a3.25,3.25,0,0,1-.1.38c0,.06-.25.15-.28.28s-.18.21-.13.38a3.21,3.21,0,0,1,0,.52s.13,0,0,.19-.43.45-.43.69a.89.89,0,0,0,.37.7.45.45,0,0,0,.42,0c.08-.06.31-.1.07.37a4.18,4.18,0,0,0-.25.52s.29-.25.22,0-.72,2.29-.79,2.48a6.25,6.25,0,0,0-.32,1.2c0,.27-.12.45.08.5a.35.35,0,0,1,.19.11,2.51,2.51,0,0,0,.09.46,3.56,3.56,0,0,1,.12,1.15.56.56,0,0,1-.15.33l-.25.31a3.45,3.45,0,0,1-.56.13s-.2.16,0,.17a9.05,9.05,0,0,0,.94,0s.25-.27.41-.28.13.15.15.24,0,0,0,0h.1s0-.21,0-.25.15-.1.15-.21-.07-.16-.1-.22a2.68,2.68,0,0,1-.2-.89,4.37,4.37,0,0,1,.14-.88,11.64,11.64,0,0,0,2.13,0s1.05,1.16,1.28,1.51.26.46.14.65-.22.33,0,.3a.92.92,0,0,0,.6-.33,7.16,7.16,0,0,0,0-.82A.59.59,0,0,1,81.5,142.28Zm-5.18-1.35v0Zm3-7.06a1.26,1.26,0,0,1,.1-.4,3,3,0,0,0,.12.33c.09.23.23.36.22.5s-.2.13-.2.13A1.12,1.12,0,0,1,79.27,133.87Z"/><path class="cls-1" d="M319.07,287.72a7.18,7.18,0,0,0,0,.82.92.92,0,0,0,.6.33c.21,0,.12-.1,0-.3s-.09-.31.14-.65,1.28-1.51,1.28-1.51a11.64,11.64,0,0,0,2.13,0,4.36,4.36,0,0,1,.14.88,2.69,2.69,0,0,1-.2.89.36.36,0,0,0-.1.22c0,.12.15.17.15.21s0,.25,0,.25h.1s0,0,0,0,0-.26.15-.24.37.26.41.28a8.9,8.9,0,0,0,.94,0c.17,0,0-.17,0-.17a3.44,3.44,0,0,1-.56-.13l-.25-.31a.56.56,0,0,1-.15-.33,3.57,3.57,0,0,1,.12-1.15,2.52,2.52,0,0,0,.09-.46.35.35,0,0,1,.19-.11c.2-.05.08-.23.08-.5a6.22,6.22,0,0,0-.32-1.2c-.07-.19-.72-2.19-.79-2.48s.22,0,.22,0a4.14,4.14,0,0,0-.25-.52c-.24-.47,0-.43.07-.37a.45.45,0,0,0,.42,0,.89.89,0,0,0,.37-.7c0-.24-.3-.54-.43-.69s0-.19,0-.19a3.22,3.22,0,0,1,0-.52c0-.17-.1-.24-.13-.37s-.24-.22-.28-.28a3.25,3.25,0,0,1-.1-.38c0-.12,0-.08.09-.17s0-.19-.08-.28,0-.2,0-.36,0-.93-.69-1-.67.53-.67.72a2.48,2.48,0,0,1-.06.53c0,.22-.49.69-.49.69a.9.9,0,0,0-.21.18,9.22,9.22,0,0,0-.6,1.32s0,.07,0,.09c-.24.1-.64,1-.88,1.47a1,1,0,0,0,0,1,3.64,3.64,0,0,0,1.25.49c.33.06.17,0,.06.4s-.15.63-.24,1.08a5.5,5.5,0,0,1-.53,1.1,1.39,1.39,0,0,0-.18.54c0,.17.4.19.4.19a4.14,4.14,0,0,0-.22.48,1.08,1.08,0,0,1-.54.68c-.31.11-.27.14-.32.14s-.17-.05-.24,0-.2.27-.2.27l0,.06A.59.59,0,0,1,319.07,287.72Zm5-1.37v0Zm-3.18-6.5s-.2-.11-.2-.13.13-.27.22-.51a3,3,0,0,0,.12-.33,1.26,1.26,0,0,1,.1.4A1.12,1.12,0,0,1,320.88,279.85Z"/></g></g></svg>